<?xml version="1.0" encoding="utf-8"?>
<svg xmlns="http://www.w3.org/2000/svg" width="700.74679" height="597.77667" viewBox="0 0 700.74679 597.77667" role="img" artist="Katerina Limpitsouni" source="https://undraw.co/">
  <path d="M868.01492,746.55858l.0152-.697a80.52864,80.52864,0,0,1,30.11215-60.64309,78.13219,78.13219,0,0,1,16.78623-10.11535l.572-.25474.09758.61813c1.16153,7.3802,3.0009,14.91288,3.85784,18.25612l5.74416-22.41411.63822-.18437a15.27246,15.27246,0,0,1,16.303,5.20879,15.53409,15.53409,0,0,1,1.61173,17.33177c-1.33891,2.49455-2.655,5.09733-3.92819,7.61425-4.37386,8.6493-8.89655,17.59309-15.48708,24.54163a48.6753,48.6753,0,0,1-39.25924,14.64528Z" transform="translate(-249.62661 -151.11166)" fill="#f2f2f2"/>
  <polygon points="546.768 585.081 536.773 585.08 532.017 546.524 546.77 546.525 546.768 585.081" fill="#ffb6b6"/>
  <path d="M796.747,746.62045l-30.73878-.00116v-.38874a11.96505,11.96505,0,0,1,11.96439-11.9642h.00074l5.61483-4.2597,10.476,4.26035,2.68329.00009Z" transform="translate(-249.62661 -151.11166)" fill="#2f2e41"/>
  <polygon points="650.238 556.92 642.341 563.048 614.944 535.505 626.599 526.46 650.238 556.92" fill="#ffb6b6"/>
  <path d="M906.53628,716.053l-24.28357,18.84624-.23835-.3071a11.965,11.965,0,0,1,2.11584-16.78725l.00058-.00045,1.82379-6.80774,10.888-3.05769,2.11979-1.64516Z" transform="translate(-249.62661 -151.11166)" fill="#2f2e41"/>
  <path d="M856.62661,521.48485s-.68218,10.43874-1.54259,25.36144c-.14111,2.44744.69106,5.10617.54259,7.76856-.09851,1.76641-1.17624,3.48366-1.27636,5.32545-.10567,1.94378,1.38234,3.66437,1.27636,5.67455-.10355,1.964-1.80109,4.21635-1.90349,6.22674-1.102,21.63419-5.09651,47.53327-1.09651,54.77326,1.97134,3.56812,32,53,32,53s-14,21-18,14c-5.28313-9.24547-46-52.5-46-60.76,0-8.25-9.41993-70.08-9.41993-70.08l-6.56834,36.59036-3.01173,7.24966.94634,4.25606-1.94634,5.74394-.10516,5.68434-1.89484,10.55565s5.69995,82.24,2.49,84.53c-3.22,2.3-18.81006,6.43-20.64991,2.3-1.83007-4.13-8.84008-85.83-8.84008-85.83s-1.91993-37.43994-4-72.24c-.11988-2.02-1.54-4.46-1.65-6.45-.13-2.31.77-5.30994.65-7.55-.13-2.56994-1.27-4.38-1.38-6.84-.85-19.01-.98-33.99.53992-36.27,4.59009-6.88,8.72009-12.38,8.72009-12.38s65.6-16.06,82.12,4.58Z" transform="translate(-249.62661 -151.11166)" fill="#2f2e41"/>
  <path d="M797.62661,324.61485l15.81737-.88448,11.92026,6.50684,33.14757,187.71555s-33.8852,15.66209-54.8852,9.66209-43.1148-5.66209-43.1148-5.66209l16.1148-179.33791,13-12Z" transform="translate(-249.62661 -151.11166)" fill="#e6e6e6"/>
  <path d="M824.01455,328.59465l24.483,9.99826a16.66267,16.66267,0,0,1,15.58371,13.66737l-1.6245,48.35257-8.83011,23.002,6.29683,52.40017-3.29683,6.59983,2.84875,6.73651c-4.18164,6.78919-3.33044,15.68512-.84875,25.26349h-3l-6-1S836.417,518.201,833.7107,501.72978c-7.08409-43.11493-11.08409-24.11493-11.08409-24.11493l-3.4872-133.77245Z" transform="translate(-249.62661 -151.11166)" style="fill: rgb(34, 67, 182);"/>
  <path d="M790.62661,328.61485,767.7557,352.59291A16.66267,16.66267,0,0,0,752.172,366.26028l9.45462,74.35457-4.43717,28.53025,2.43717,6.46975-1.765,7.31259,2.765,6.68741-2,9,3,13,15-4-.1148-10.66209,4-145Z" transform="translate(-249.62661 -151.11166)" style="fill: rgb(34, 67, 182);"/>
  <path d="M714.354,451.87174l-31.15473,22.607a6.803,6.803,0,1,0,6.422,9.86626L731.98568,461.729Z" transform="translate(-249.62661 -151.11166)" fill="#ffb6b6"/>
  <path d="M757.62661,356.61485c-5.92121,2.7311-20.54883,72.65156-24.8419,74.134s-2.65392,1.25967-3.2562,2.49728-.74795,6.7793-4.86925,7.42965-25.896,20.50182-25.896,20.50182l5.51957,18.3993s41.90147-23.93873,53.45495-37.195,17.774-81.42911,17.774-81.42911l1.18175-6.80129S763.54781,353.88375,757.62661,356.61485Z" transform="translate(-249.62661 -151.11166)" style="fill: rgb(34, 67, 182);"/>
  <path d="M851.58866,442.63989l-27.76457,26.66127a6.803,6.803,0,1,0,7.71282,8.89365l38.86738-28.20563Z" transform="translate(-249.62661 -151.11166)" fill="#ffb6b6"/>
  <path d="M855.62661,362.61485c-5.49132,3.5164,15.37534,54.52026,11.32578,56.57677s-2.45637,1.61131-2.88345,2.91974.18767,6.81786-3.8057,8.02658-22.84379,23.85561-22.84379,23.85561l7.98773,17.46986s38.22762-29.45241,47.85648-44.16628,3.363-19.68228,3.363-19.68228c-11.94605-25.37237-23.11939-66.75079-40-64C856.62661,343.61485,861.11792,359.09846,855.62661,362.61485Z" transform="translate(-249.62661 -151.11166)" style="fill: rgb(34, 67, 182);"/>
  <circle cx="551.39233" cy="142.73745" r="26.80653" fill="#ffb6b6"/>
  <path d="M828.16428,311.12189s-5.904,1.61882-9.33976,2.52007c.17761-2.55664,1.28486-4.95,1.84714-7.45109s.44025-5.44257-1.41851-7.20853-5.73-1.07792-6.02951,1.46313q-2.35871-5.04375-4.72718-10.1059c-4.50223,9.26712-13.70672,1.36989-23.74286,3.71145-5.11992,1.20608-11.53673.688-14.24163-3.82337a16.71144,16.71144,0,0,0,3.782-4.53721,15.26826,15.26826,0,0,1-4.8081.60916,10.07877,10.07877,0,0,1,4.45653-8.1348c1.44345-.94375-2.12937-4.30177-.86958-5.48383,2.58379-2.41255,4.31775-.77428,5.8442-3.95434a11.74567,11.74567,0,0,1,10.61238-6.48825c4.38693.10274,12.24765.0604,13.94968,4.102,5.42448-3.551,12.9755-2.5477,18.27776,1.17736,4.40717,3.08424,9.42281,12.40684,10.52973,17.6696C833.39351,290.45,830.95413,306.53528,828.16428,311.12189Z" transform="translate(-249.62661 -151.11166)" fill="#2f2e41"/>
  <path d="M546.12661,440.11485H324.47817A12.21074,12.21074,0,0,1,312.154,428.93419a12.00675,12.00675,0,0,1,11.97266-12.81934h222a12,12,0,0,1,0,24Z" transform="translate(-249.62661 -151.11166)" style="fill: rgb(34, 67, 182);"/>
  <path d="M594.86293,459.61485H312.62661a1,1,0,0,1,0-2H594.86293a1,1,0,0,1,0,2Z" transform="translate(-249.62661 -151.11166)" fill="#e6e6e6"/>
  <path d="M583.12661,440.61485h-259a12.5,12.5,0,0,1,0-25h259a12.5,12.5,0,0,1,0,25Zm-259-23a10.5,10.5,0,0,0,0,21h259a10.5,10.5,0,0,0,0-21Z" transform="translate(-249.62661 -151.11166)" fill="#3f3d56"/>
  <polygon points="296.214 280.201 294.214 280.201 294.214 335.244 416.871 335.244 416.871 333.244 296.214 333.244 296.214 280.201" fill="#ccc"/>
  <circle cx="423.0541" cy="335.06048" r="11.9459" fill="#ccc"/>
  <path d="M949.18271,748.581l-271.75.30734a1.19069,1.19069,0,1,1,0-2.38137l271.75-.30733a1.19068,1.19068,0,0,1,0,2.38136Z" transform="translate(-249.62661 -151.11166)" fill="#cacaca"/>
  <path d="M839.70638,328.61772a4.459,4.459,0,0,0-6.04285-1.43262c1.47-2.04278.36243-5.53375-1.94165-6.94482-2.61035-1.59876-5.908-1.33392-8.95251-1.016L797.81246,321.831c-2.8775.30053-5.83478.62445-8.3963,1.96954s-4.6687,3.97016-4.52069,6.85962a14.35827,14.35827,0,0,0-6.12183-.83026c-2.05145.3233-4.07452,1.82269-4.2934,3.88794-.35125,3.31409,3.5857,5.228,6.79212,6.13653q8.93041,2.53033,17.86084,5.0608l-1.8357.39233a76.07616,76.07616,0,0,0,34.45551-4.98456c2.50818-.98889,5.04779-2.17328,6.804-4.21893S841.07973,330.93785,839.70638,328.61772Z" transform="translate(-249.62661 -151.11166)" fill="#e6e6e6"/>
  <path d="M 161.029 172.487 C 165.766 185.614 164.387 198.821 158.869 209.765 C 156.348 214.895 153.157 219.748 148.68 223.32 L 147.795 223.835 C 143.668 225.649 135.029 225.51 128.499 220.244 C 121.796 214.838 116.576 205.435 114.198 194.798 C 112.258 194.569 110.48 194.156 108.866 193.555 L 108.866 206.608 C 108.927 208.118 109.063 209.342 109.273 210.28 C 109.486 211.215 110.015 212.001 110.86 212.638 C 111.707 213.269 113.006 213.585 114.758 213.585 L 115.303 213.585 C 115.905 213.585 116.345 213.692 116.619 213.907 C 116.889 214.115 117.054 214.643 117.114 215.49 C 117.114 216.032 116.98 216.501 116.711 216.892 C 116.437 217.284 116.026 217.482 115.483 217.482 C 111.616 217.301 107.84 217.211 104.154 217.211 C 100.891 217.211 97.295 217.301 93.369 217.482 C 92.885 217.482 92.493 217.284 92.19 216.892 C 91.887 216.501 91.737 216.032 91.737 215.49 C 91.797 214.584 91.992 214.038 92.323 213.857 C 92.657 213.676 93.248 213.585 94.093 213.585 C 95.845 213.585 97.145 213.269 97.991 212.638 C 98.837 212.001 99.364 211.215 99.574 210.28 C 99.787 209.342 99.924 208.118 99.985 206.608 L 99.985 170.626 C 99.924 169.115 99.787 167.892 99.574 166.957 C 99.364 166.019 98.837 165.23 97.991 164.595 C 97.145 163.962 95.845 163.646 94.093 163.646 L 93.551 163.646 C 92.946 163.646 92.509 163.541 92.238 163.331 C 91.965 163.119 91.797 162.588 91.737 161.743 C 91.737 161.199 91.887 160.728 92.19 160.334 C 92.493 159.943 92.885 159.749 93.369 159.749 C 97.295 159.93 100.921 160.02 104.244 160.02 L 117.84 160.02 C 123.096 160.02 128.187 161.109 133.109 163.284 C 138.035 165.458 140.498 169.809 140.498 176.335 C 140.498 179.961 139.41 183.194 137.235 186.032 C 135.06 188.873 132.237 191.078 128.764 192.65 C 126.023 193.889 123.196 194.639 120.287 194.901 C 122.095 201.781 125.566 208.122 130.471 212.078 C 136.294 216.774 142.744 216.682 147.391 211.839 C 147.775 211.439 148.139 211.018 148.484 210.573 C 148.977 209.863 149.442 209.145 149.877 208.418 L 149.887 208.418 C 163.488 185.763 150.585 155.203 123.297 150.31 C 109.628 147.86 95.689 152.888 86.733 163.502 C 67.432 186.369 80.125 221.554 109.578 226.834 C 114.604 227.735 119.665 227.625 124.502 226.598 C 124.974 226.453 125.479 226.373 126.007 226.373 C 128.602 226.373 130.706 228.303 130.706 230.681 C 130.706 232.899 128.876 234.727 126.524 234.963 C 120.716 236.215 114.499 236.384 108.074 235.233 C 91.403 232.245 77.594 220.59 71.847 204.658 C 59.464 170.331 88.883 135.472 124.803 141.911 C 141.474 144.9 155.282 156.555 161.029 172.487 Z M 115.303 190.928 C 117.477 190.928 119.729 190.491 122.057 189.617 C 124.381 188.738 126.36 187.227 127.99 185.085 C 129.623 182.937 130.439 180.111 130.439 176.607 C 130.439 171.29 128.746 167.755 125.363 166.003 C 121.98 164.249 118.383 163.374 114.578 163.374 C 113.006 163.374 111.827 163.541 111.042 163.875 C 110.257 164.206 109.699 164.854 109.369 165.821 C 109.034 166.789 108.866 168.298 108.866 170.354 L 108.866 189.929 C 110.317 190.595 112.461 190.928 115.303 190.928 Z" style="fill: rgb(34, 67, 182); stroke-width: 1;"/>
  <g transform="matrix(1.856721, 0, 0, 1.856721, -487.310089, -109.903061)" style="">
    <circle cx="15.27" cy="15.27" r="15.27" transform="matrix(0.987688, -0.156434, 0.156434, 0.987688, 358.754204, 151.443705)" style="stroke-width: 1; fill: rgb(34, 67, 182);"/>
    <path d="M 381.642 167.839 L 376.256 155.073 L 370.871 167.839 L 375.529 165.86 L 375.529 173.587 L 376.983 173.587 L 376.983 165.86 L 381.642 167.839 Z" fill="#fff" style="stroke-width: 1; transform-box: fill-box; transform-origin: 50% 50%;"/>
  </g>
</svg>