<?xml version="1.0" encoding="utf-8"?>
<svg width="893.343px" height="436px" viewBox="0 0 893.351 436" role="img" artist="Katerina Limpitsouni" source="https://undraw.co/" preserveAspectRatio="xMidYMin" xmlns="http://www.w3.org/2000/svg">
  <path d="M -28.249 382.07 C -28.249 383.01 -27.179 383.76 -25.839 383.76 L 919.191 383.76 C 920.521 383.76 921.601 383.01 921.601 382.07 C 921.601 381.13 920.531 380.38 919.191 380.38 L -25.839 380.38 C -27.169 380.38 -28.249 381.13 -28.249 382.07 Z" fill="#2f2e43" stroke-width="0"/>
  <path d="M 760.941 380.438 L 134.411 380.438 L 134.411 23.974 C 134.411 15.544 142.171 8.68 151.721 8.68 L 743.631 8.68 C 753.171 8.68 760.941 15.536 760.941 23.974 L 760.941 380.438 Z" fill="#2f2e41" stroke-width="0" style=""/>
  <path d="M 813.091 427.32 L 80.701 427.32 C 78.171 427.32 76.101 425.75 75.411 423.31 C 74.731 420.88 75.681 418.45 77.841 417.14 L 134.931 382.31 L 761.151 382.31 L 761.331 382.42 L 816.051 417.19 C 818.161 418.53 819.081 420.95 818.381 423.36 C 817.681 425.76 815.611 427.32 813.111 427.32 Z" fill="#dfdfdf" stroke-width="0"/>
  <rect x="150.841" y="34.4" width="592.95" height="321.055" fill="#fff" stroke-width="0" style=""/>
  <polygon points="766.651 405.18 130.841 405.18 162.271 379.68 736.651 379.68 766.651 405.18" fill="#2f2e41" stroke-width="0"/>
  <polygon points="598.061 422.32 296.58 422.32 308.011 405.18 586.631 405.18 598.061 422.32" fill="#2f2e41" stroke-width="0"/>
  <path d="M 625.031 180.17 L 593.621 180.17 C 590.891 180.17 588.671 177.95 588.671 175.22 C 588.671 172.49 590.891 170.27 593.621 170.27 L 625.031 170.27 C 627.761 170.27 629.981 172.49 629.981 175.22 C 629.981 177.95 627.761 180.17 625.031 180.17 Z" fill="#dfdfdf" stroke-width="0" style=""/>
  <path d="M 661.151 180.17 L 646.491 180.17 C 643.761 180.17 641.541 177.95 641.541 175.22 C 641.541 172.49 643.761 170.27 646.491 170.27 L 661.151 170.27 C 663.881 170.27 666.101 172.49 666.101 175.22 C 666.101 177.95 663.881 180.17 661.151 180.17 Z" fill="#dfdfdf" stroke-width="0" style=""/>
  <path d="M 310.551 183.95 L 214.951 183.95 C 210.071 183.95 206.101 179.98 206.101 175.1 C 206.101 170.22 210.071 166.25 214.951 166.25 L 310.551 166.25 C 315.431 166.25 319.401 170.22 319.401 175.1 C 319.401 179.98 315.431 183.95 310.551 183.95 Z" fill="#6c63ff" stroke-width="0" style=""/>
  <path d="M 258.721 207.56 L 212.651 207.56 C 209.681 207.56 207.251 205.14 207.251 202.16 C 207.251 199.18 209.671 196.76 212.651 196.76 L 258.721 196.76 C 261.691 196.76 264.121 199.18 264.121 202.16 C 264.121 205.14 261.701 207.56 258.721 207.56 Z" fill="#dfdfdf" stroke-width="0" style=""/>
  <path d="M 512.701 228.87 L 211.491 228.87 C 208.521 228.87 206.091 226.45 206.091 223.47 C 206.091 220.49 208.511 218.07 211.491 218.07 L 512.701 218.07 C 515.671 218.07 518.101 220.49 518.101 223.47 C 518.101 226.45 515.681 228.87 512.701 228.87 Z" fill="#dfdfdf" stroke-width="0" style=""/>
  <path d="M 486.791 243.27 L 211.491 243.27 C 208.521 243.27 206.091 240.85 206.091 237.87 C 206.091 234.89 208.511 232.47 211.491 232.47 L 486.781 232.47 C 489.751 232.47 492.181 234.89 492.181 237.87 C 492.181 240.85 489.761 243.27 486.781 243.27 Z" fill="#dfdfdf" stroke-width="0" style=""/>
  <polygon points="810.491 115.86 795.771 120.7 795.771 99.5 809.131 99.5 810.491 115.86" fill="#f2a7aa" stroke-width="0"/>
  <circle cx="797.591" cy="90.7" r="14.67" fill="#f2a7aa" stroke-width="0"/>
  <path d="M 801.621 89.25 C 799.161 89.18 797.551 86.69 796.601 84.43 C 795.651 82.16 794.661 79.56 792.391 78.62 C 790.531 77.85 787.241 83.02 785.771 81.65 C 784.241 80.22 785.731 72.84 787.361 71.52 C 788.991 70.2 791.211 69.94 793.311 69.84 C 798.421 69.6 803.571 70.02 808.581 71.06 C 811.681 71.71 814.871 72.68 817.111 74.92 C 819.941 77.76 820.671 82.05 820.871 86.06 C 821.081 90.16 820.841 94.46 818.851 98.04 C 816.861 101.63 812.681 104.28 808.681 103.36 C 808.281 101.18 808.681 98.95 808.841 96.74 C 808.991 94.53 808.841 92.15 807.491 90.39 C 806.141 88.63 803.261 87.94 801.691 89.5" fill="#36344e" stroke-width="0"/>
  <path d="M 819.671 94.33 C 821.141 93.25 822.891 92.36 824.701 92.58 C 826.651 92.82 828.301 94.43 828.801 96.33 C 829.301 98.23 828.741 100.33 827.531 101.88 C 826.321 103.43 824.531 104.46 822.631 104.98 C 821.531 105.28 820.331 105.4 819.281 104.95 C 817.741 104.29 816.911 102.31 817.511 100.75" fill="#36344e" stroke-width="0"/>
  <rect x="791.841" y="351.68" width="13.79" height="19.56" fill="#f2a7aa" stroke-width="0"/>
  <path d="M 778.411 383.09 C 776.961 383.09 775.671 383.05 774.701 382.96 C 771.041 382.62 767.541 379.92 765.781 378.34 C 764.991 377.63 764.741 376.5 765.151 375.52 L 765.151 375.52 C 765.441 374.82 766.031 374.3 766.761 374.09 L 776.441 371.32 L 792.111 360.74 L 792.281 361.05 C 792.351 361.17 793.881 363.94 794.401 365.81 C 794.601 366.52 794.541 367.12 794.251 367.58 C 794.041 367.9 793.761 368.08 793.521 368.19 C 793.801 368.49 794.691 369.09 797.431 369.53 C 801.421 370.17 802.271 366.02 802.301 365.85 L 802.331 365.71 L 802.451 365.63 C 804.351 364.4 805.521 363.85 805.931 363.97 C 806.181 364.05 806.601 364.17 807.741 375.46 C 807.851 375.81 808.651 378.41 808.111 380.89 C 807.521 383.59 795.721 382.66 793.361 382.45 C 793.291 382.45 784.461 383.09 778.401 383.09 Z" fill="#36344e" stroke-width="0"/>
  <rect x="865.58" y="374.8" width="13.79" height="19.56" transform="matrix(0.84851, -0.529179, 0.529179, 0.84851, -99.599487, 483.619995)" fill="#f2a7aa" stroke-width="0"/>
  <path d="M 829.361 380.41 C 827.741 380.41 826.251 380.22 825.191 380.03 C 824.151 379.85 823.331 379.02 823.161 377.97 L 823.161 377.97 C 823.041 377.22 823.261 376.47 823.771 375.9 L 830.521 368.43 L 838.221 351.16 L 838.531 351.33 C 838.651 351.39 841.421 352.93 842.851 354.25 C 843.391 354.75 843.661 355.28 843.651 355.83 C 843.651 356.21 843.501 356.52 843.361 356.73 C 843.761 356.83 844.831 356.87 847.391 355.79 C 851.121 354.22 849.641 350.25 849.581 350.08 L 849.531 349.95 L 849.591 349.82 C 850.561 347.77 851.251 346.68 851.661 346.57 C 851.911 346.5 852.341 346.39 859.271 355.36 C 859.551 355.6 861.601 357.38 862.461 359.78 C 863.391 362.38 852.881 367.84 850.771 368.91 C 850.701 368.96 839.711 376.95 835.201 379.22 C 833.411 380.12 831.291 380.4 829.361 380.4 Z" fill="#36344e" stroke-width="0"/>
  <path d="M 815.791 188.06 L 777.181 188.06 L 773.681 223.98 L 789.011 356.69 L 808.721 356.69 L 800.841 280.04 L 832.811 349.24 L 850.331 336.98 L 825.361 272.38 C 825.361 272.38 834.281 216.1 827.271 202.08 C 820.261 188.06 815.791 188.06 815.791 188.06 Z" fill="#36344e" stroke-width="0"/>
  <polygon points="834.991 190.25 773.67 190.25 792.071 110.98 818.781 110.98 834.991 190.25" stroke-width="0" style="fill: rgb(34, 67, 182);"/>
  <path id="uuid-52db3307-ec3e-496d-a5d4-9d1f33ffc652-45-45-44-44-3205" d="M 758.441 109.41 C 757.461 104.59 759.251 100.18 762.441 99.57 C 765.631 98.96 769.001 102.37 769.981 107.2 C 770.401 109.12 770.331 111.11 769.791 113.01 L 773.671 133.5 L 763.651 135.08 L 760.891 114.72 C 759.651 113.17 758.811 111.35 758.441 109.41 L 758.441 109.41 Z" fill="#f2a7aa" stroke-width="0"/>
  <path d="M 818.131 110.98 L 794.571 110.98 L 778.691 142.75 L 772.701 118.95 L 759.541 120.35 C 759.541 120.35 762.651 166.86 776.271 165.29 C 789.881 163.72 821.631 121.81 818.141 110.99 Z" stroke-width="0" style="fill: rgb(34, 67, 182);"/>
  <path id="uuid-2800d917-a06e-4fc6-b661-0f9df9cadefc-46-46-45-45-3206" d="M 844.451 231.79 C 845.431 236.61 843.641 241.02 840.451 241.63 C 837.261 242.24 833.891 238.83 832.911 234 C 832.491 232.08 832.561 230.09 833.101 228.19 L 829.221 207.7 L 839.241 206.12 L 842.001 226.48 C 843.241 228.03 844.081 229.85 844.451 231.79 C 844.451 231.79 844.451 231.79 844.451 231.79 Z" fill="#f2a7aa" stroke-width="0"/>
  <path d="M 804.701 110.98 C 804.701 110.98 818.091 110.41 818.781 110.98 C 822.431 113.97 843.871 221.64 843.871 221.64 L 830.291 221.64 C 830.291 221.64 804.691 110.98 804.691 110.98 Z" stroke-width="0" style="fill: rgb(34, 67, 182);"/>
</svg>