<?xml version="1.0" encoding="utf-8"?>
<svg width="313" height="241" viewBox="0 0 313 241" fill="none" xmlns="http://www.w3.org/2000/svg">
  <rect x="0.0546875" width="312.029" height="240.023" fill="#00A0D2"/>
  <path d="M22.8066 62.6862C22.8066 61.5815 23.7022 60.686 24.8068 60.686H287.332C288.437 60.686 289.332 61.5816 289.332 62.6862V240.023H22.8066V62.6862Z" fill="white"/>
  <g clip-path="url(#clip0_97_3385)">
    <rect x="22.8066" y="60.5059" width="30.0028" height="29.5028" fill="#1E1E1E"/>
    <path d="M 48.542 70.867 C 49.702 74.082 49.364 77.315 48.013 79.994 C 47.396 81.25 46.615 82.439 45.519 83.313 L 45.302 83.439 C 44.292 83.883 42.176 83.849 40.578 82.56 C 38.937 81.236 37.659 78.934 37.076 76.33 C 36.601 76.274 36.166 76.173 35.771 76.026 L 35.771 79.221 C 35.786 79.591 35.819 79.891 35.87 80.121 C 35.922 80.349 36.052 80.542 36.259 80.698 C 36.466 80.852 36.784 80.93 37.213 80.93 L 37.347 80.93 C 37.494 80.93 37.602 80.956 37.669 81.008 C 37.735 81.06 37.776 81.189 37.79 81.396 C 37.79 81.529 37.758 81.643 37.691 81.739 C 37.624 81.835 37.524 81.884 37.391 81.884 C 36.444 81.839 35.52 81.817 34.617 81.817 C 33.818 81.817 32.938 81.839 31.977 81.884 C 31.858 81.884 31.762 81.835 31.688 81.739 C 31.614 81.643 31.577 81.529 31.577 81.396 C 31.592 81.174 31.64 81.041 31.72 80.996 C 31.802 80.952 31.947 80.93 32.154 80.93 C 32.583 80.93 32.901 80.852 33.108 80.698 C 33.315 80.542 33.445 80.349 33.496 80.121 C 33.548 79.891 33.582 79.591 33.596 79.221 L 33.596 70.412 C 33.582 70.042 33.548 69.742 33.496 69.514 C 33.445 69.284 33.315 69.091 33.108 68.935 C 32.901 68.78 32.583 68.703 32.154 68.703 L 32.021 68.703 C 31.873 68.703 31.766 68.677 31.7 68.626 C 31.633 68.574 31.592 68.444 31.577 68.237 C 31.577 68.104 31.614 67.989 31.688 67.892 C 31.762 67.796 31.858 67.749 31.977 67.749 C 32.938 67.793 33.826 67.815 34.639 67.815 L 37.968 67.815 C 39.255 67.815 40.501 68.082 41.706 68.614 C 42.912 69.147 43.515 70.212 43.515 71.81 C 43.515 72.697 43.249 73.489 42.717 74.184 C 42.184 74.879 41.493 75.419 40.643 75.804 C 39.971 76.107 39.279 76.291 38.567 76.355 C 39.01 78.039 39.86 79.592 41.061 80.561 C 42.486 81.71 44.065 81.688 45.203 80.502 C 45.297 80.404 45.386 80.301 45.471 80.192 C 45.591 80.018 45.705 79.842 45.812 79.665 L 45.814 79.665 C 49.144 74.118 45.985 66.636 39.304 65.438 C 35.957 64.838 32.545 66.069 30.352 68.668 C 25.626 74.266 28.734 82.881 35.945 84.173 C 37.176 84.394 38.415 84.367 39.599 84.116 C 39.714 84.08 39.838 84.06 39.967 84.06 C 40.603 84.06 41.118 84.533 41.118 85.115 C 41.118 85.658 40.67 86.106 40.094 86.164 C 38.672 86.47 37.15 86.512 35.577 86.23 C 31.495 85.498 28.114 82.645 26.707 78.744 C 23.676 70.34 30.878 61.805 39.673 63.382 C 43.754 64.113 47.135 66.967 48.542 70.867 Z M 37.347 75.382 C 37.879 75.382 38.43 75.275 39 75.061 C 39.569 74.846 40.054 74.476 40.453 73.952 C 40.853 73.426 41.053 72.734 41.053 71.876 C 41.053 70.574 40.638 69.709 39.81 69.28 C 38.981 68.851 38.101 68.636 37.169 68.636 C 36.784 68.636 36.496 68.677 36.304 68.759 C 36.111 68.84 35.975 68.999 35.894 69.236 C 35.812 69.472 35.771 69.842 35.771 70.345 L 35.771 75.138 C 36.126 75.301 36.651 75.382 37.347 75.382 Z" style="fill: rgb(255, 255, 255);"/>
  </g>
  <rect x="22.8066" y="90.2383" width="266.516" height="149.784" fill="#EEEEEE"/>
  <rect x="266.523" y="65.9727" width="18.5696" height="18.5696" rx="0.687763" fill="black"/>
  <circle cx="275.808" cy="75.2577" r="4.51344" stroke="white" stroke-width="0.601793"/>
  <path d="M275.808 75.2577C275.808 77.9166 275.808 80.072 275.808 80.072C273.15 80.072 270.994 77.9166 270.994 75.2577C270.994 72.5988 273.15 70.4434 275.808 70.4434C275.808 70.4434 275.808 72.5988 275.808 75.2577Z" fill="white"/>
  <rect x="73.3477" y="100.501" width="165.337" height="21.9736" fill="white"/>
  <rect x="73.3477" y="128.475" width="55.1124" height="10.2132" fill="white"/>
  <rect width="165.414" height="85.5589" transform="translate(73.3477 144.688)" fill="#00A0D2"/>
  <path d="M186.427 163.776C190.951 169.382 188.689 181.957 184.488 190.497C181.995 195.593 178.821 197.748 175.186 199.63C169.782 202.429 165.219 206.475 160.376 210.16C155.457 213.903 149.361 217.038 144.135 215.959C136.009 214.23 127.606 206.057 125.067 195.683C122.481 185.31 125.759 172.735 132.454 166.606C139.103 160.476 149.168 157.94 159.879 157.363C170.544 156.787 181.902 158.223 186.427 163.776Z" fill="white"/>
  <circle cx="147.661" cy="180.217" r="13.6315" fill="#FFE600"/>
  <mask id="path-14-inside-1_97_3385" fill="white">
    <path fill-rule="evenodd" clip-rule="evenodd" d="M244.701 205.005L234.776 197.816L236.039 210.005L239.179 208.193L241.237 211.758C241.617 212.416 242.459 212.642 243.117 212.262C243.774 211.882 244 211.041 243.62 210.383L241.561 206.817L244.701 205.005Z"/>
  </mask>
  <path fill-rule="evenodd" clip-rule="evenodd" d="M244.701 205.005L234.776 197.816L236.039 210.005L239.179 208.193L241.237 211.758C241.617 212.416 242.459 212.642 243.117 212.262C243.774 211.882 244 211.041 243.62 210.383L241.561 206.817L244.701 205.005Z" fill="white"/>
  <path d="M234.776 197.816L235.069 197.411L234.163 196.754L234.278 197.867L234.776 197.816ZM244.701 205.005L244.951 205.438L245.618 205.052L244.994 204.6L244.701 205.005ZM236.039 210.005L235.542 210.057L235.622 210.824L236.29 210.438L236.039 210.005ZM239.179 208.193L239.612 207.943L239.362 207.51L238.929 207.76L239.179 208.193ZM241.561 206.817L241.311 206.384L240.878 206.634L241.128 207.067L241.561 206.817ZM234.483 198.221L244.407 205.41L244.994 204.6L235.069 197.411L234.483 198.221ZM236.537 209.954L235.273 197.764L234.278 197.867L235.542 210.057L236.537 209.954ZM238.929 207.76L235.789 209.572L236.29 210.438L239.429 208.626L238.929 207.76ZM241.671 211.508L239.612 207.943L238.746 208.443L240.804 212.008L241.671 211.508ZM242.866 211.829C242.448 212.071 241.912 211.927 241.671 211.508L240.804 212.008C241.322 212.906 242.469 213.213 243.367 212.695L242.866 211.829ZM243.187 210.633C243.429 211.052 243.285 211.587 242.866 211.829L243.367 212.695C244.264 212.177 244.571 211.03 244.053 210.133L243.187 210.633ZM241.128 207.067L243.187 210.633L244.053 210.133L241.994 206.567L241.128 207.067ZM244.451 204.572L241.311 206.384L241.811 207.25L244.951 205.438L244.451 204.572Z" fill="black" mask="url(#path-14-inside-1_97_3385)"/>
  <defs>
    <clipPath id="clip0_97_3385">
      <path d="M22.8066 62.506C22.8066 61.4014 23.7022 60.5059 24.8068 60.5059H52.8095V90.0086H22.8066V62.506Z" fill="white"/>
    </clipPath>
  </defs>
</svg>