<?xml version="1.0" encoding="utf-8"?>
<svg xmlns="http://www.w3.org/2000/svg" width="716.872" height="800.535" viewBox="0 0 716.872 800.535" role="img" artist="Katerina Limpitsouni" source="https://undraw.co/">
  <g transform="translate(-765 -285)">
    <path d="M82.664,76.476a68.781,68.781,0,1,1,89.387,65.637l-13.3,87.874L90.972,173.5s14.643-18.652,22.5-39.683a68.706,68.706,0,0,1-30.8-57.341Z" transform="translate(801.236 288.373)" fill="#ed9da0"/>
    <path d="M14.072,448.892l17.049-120.7L67.9,352.462,43.968,454.77c4.422,6.371,6.331,15.182,4.537,24.3-3.138,15.961-16.39,26.794-29.6,24.2S-2.467,485.63.671,469.669c1.794-9.122,6.9-16.554,13.4-20.777h0Z" transform="translate(765 428.86)" fill="#ed9da0"/>
    <path d="M260.456,442.327l-17.049-120.7L206.625,345.9,230.56,448.2c-4.422,6.371-6.331,15.182-4.537,24.3,3.138,15.961,16.39,26.794,29.6,24.2s21.373-17.641,18.235-33.6c-1.794-9.122-6.9-16.554-13.4-20.777h0Z" transform="translate(855.574 425.982)" fill="#e09093"/>
    <path d="M202.2,112.283l-80.27,11.8v21.407s-68.466-11.963-77.909,47.059V338.928L10.97,485.3l42.5,9.443,53.12-155.819,20.4,19.319h106.24L258.7,338.928l33.212,132.21,49.579-18.887L315.8,329.485s11.529-153.458-42.772-177.067-54.3-16.526-54.3-16.526L202.2,112.283Z" transform="translate(769.809 334.219)" fill="#e6e6e6"/>
    <path d="M112.115,282.988l-9.444,25.97S31.845,377.423,46.01,554.49l231.367-7.083s33.052-188.871-44.857-243.171l-14.184-21.248H112.115Z" transform="translate(784.347 409.047)" fill="#090814"/>
    <path d="M67.549,170.219s3.212,24.368,32.969,25.164L160.881,197S109.854,72.815,130.835,86.805s76.934-44.661,76.934-44.661l16.509,30.963s39.442-14.283-4.27-49.258c0,0-52.155-40.322-107.524-16.109S67.549,170.219,67.549,170.219h0Z" transform="translate(794.267 285)" fill="#090814"/>
    <path d="M475.924,772.417l-329.553-90.5a14.737,14.737,0,0,1-10.3-18.093L298.45,72.546a14.737,14.737,0,0,1,18.093-10.3l329.554,90.5a14.737,14.737,0,0,1,10.3,18.093L494.017,762.12a14.737,14.737,0,0,1-18.093,10.3Z" transform="translate(824.416 312.055)" fill="#fff"/>
    <path d="M475.924,772.417l-329.553-90.5a14.737,14.737,0,0,1-10.3-18.093L298.45,72.546a14.737,14.737,0,0,1,18.093-10.3l329.554,90.5a14.737,14.737,0,0,1,10.3,18.093L494.017,762.12a14.737,14.737,0,0,1-18.093,10.3Z" transform="translate(824.416 312.055)" fill="none" stroke="#2f2e41" stroke-miterlimit="10" stroke-width="1"/>
    <path d="M476.388,502.565l-270.7-74.339a16.654,16.654,0,0,1-11.637-20.446l61.655-224.509a16.654,16.654,0,0,1,20.447-11.635l270.7,74.339a16.652,16.652,0,0,1,11.634,20.445L496.833,490.93A16.652,16.652,0,0,1,476.388,502.565Z" transform="translate(849.803 359.975)" style="fill: rgb(34, 67, 182);"/>
    <path d="M331.108,171.8l-73.547-20.2a7.11,7.11,0,0,1-4.968-8.728l4.695-17.1a7.11,7.11,0,0,1,8.729-4.968L339.564,141a7.109,7.109,0,0,1,4.965,8.728l-4.695,17.1a7.109,7.109,0,0,1-8.726,4.967Z" transform="translate(875.612 337.844)" fill="#d6d6e3"/>
    <path d="M331.763,132.1l-65.375-17.953a6.022,6.022,0,0,1-4.208-7.394l3.86-14.056a6.022,6.022,0,0,1,7.394-4.209l65.375,17.953a6.022,6.022,0,0,1,4.207,7.4l-3.86,14.056a6.022,6.022,0,0,1-7.394,4.208Z" transform="translate(879.831 323.692)" fill="#d6d6e3"/>
    <path d="M404.249,191.881l-73.547-20.2a7.11,7.11,0,0,1-4.968-8.728l4.695-17.1a7.11,7.11,0,0,1,8.729-4.968l73.547,20.2a7.109,7.109,0,0,1,4.965,8.728l-4.695,17.1a7.109,7.109,0,0,1-8.726,4.967Z" transform="translate(907.673 346.648)" fill="#d6d6e3"/>
    <path d="M477.39,211.967l-73.547-20.2a7.11,7.11,0,0,1-4.968-8.728l4.695-17.1a7.11,7.11,0,0,1,8.729-4.968l73.547,20.2a7.109,7.109,0,0,1,4.965,8.728L486.116,207a7.109,7.109,0,0,1-8.726,4.967Z" transform="translate(939.734 355.453)" fill="#d6d6e3"/>
    <path d="M196.661,423.849a22.618,22.618,0,1,1,27.8-15.821A22.644,22.644,0,0,1,196.661,423.849Z" transform="translate(843.915 451.317)" style="fill: rgb(34, 67, 182);"/>
    <path d="M386.282,495.391,178.444,438.314a10.644,10.644,0,1,1,5.637-20.527L391.92,474.863a10.644,10.644,0,1,1-5.637,20.527Z" transform="translate(839.79 467.968)" fill="#d6d6e3"/>
    <path d="M380.071,521.5,172.232,464.426A10.644,10.644,0,1,1,177.87,443.9l207.838,57.077a10.644,10.644,0,1,1-5.637,20.527Z" transform="translate(837.067 479.414)" fill="#d6d6e3"/>
    <path d="M298.165,526.827,166.021,490.538a10.644,10.644,0,1,1,5.637-20.527L303.8,506.3a10.644,10.644,0,1,1-5.637,20.527Z" transform="translate(834.344 490.86)" fill="#d6d6e3"/>
    <path d="M 1300.2 668.085 C 1308.27 690.45 1305.92 712.948 1296.53 731.592 C 1292.23 740.331 1286.8 748.599 1279.15 754.684 L 1277.64 755.56 C 1270.62 758.652 1255.89 758.415 1244.77 749.444 C 1233.37 740.234 1224.46 724.216 1220.42 706.093 C 1217.11 705.706 1214.07 705 1211.34 703.977 L 1211.34 726.213 C 1211.44 728.787 1211.66 730.873 1212.04 732.47 C 1212.39 734.063 1213.29 735.401 1214.73 736.486 C 1216.15 737.562 1218.38 738.1 1221.38 738.1 L 1222.3 738.1 C 1223.33 738.1 1224.08 738.282 1224.53 738.647 C 1224.99 739.004 1225.28 739.902 1225.38 741.344 C 1225.38 742.269 1225.13 743.067 1224.69 743.733 C 1224.21 744.403 1223.53 744.74 1222.6 744.74 C 1216.02 744.43 1209.58 744.277 1203.31 744.277 C 1197.76 744.277 1191.62 744.43 1184.92 744.74 C 1184.09 744.74 1183.44 744.403 1182.91 743.733 C 1182.38 743.067 1182.13 742.269 1182.13 741.344 C 1182.24 739.801 1182.59 738.873 1183.14 738.563 C 1183.72 738.254 1184.73 738.1 1186.15 738.1 C 1189.13 738.1 1191.37 737.562 1192.8 736.486 C 1194.24 735.401 1195.13 734.063 1195.49 732.47 C 1195.86 730.873 1196.11 728.787 1196.19 726.213 L 1196.19 664.915 C 1196.11 662.341 1195.86 660.258 1195.49 658.666 C 1195.13 657.068 1194.24 655.724 1192.8 654.642 C 1191.37 653.563 1189.13 653.024 1186.15 653.024 L 1185.23 653.024 C 1184.2 653.024 1183.47 652.846 1183.01 652.489 C 1182.53 652.126 1182.24 651.223 1182.13 649.781 C 1182.13 648.855 1182.38 648.055 1182.91 647.383 C 1183.44 646.717 1184.09 646.385 1184.92 646.385 C 1191.62 646.694 1197.79 646.848 1203.44 646.848 L 1226.62 646.848 C 1235.57 646.848 1244.23 648.702 1252.63 652.408 C 1261.03 656.111 1265.2 663.523 1265.2 674.641 C 1265.2 680.818 1263.37 686.325 1259.65 691.161 C 1255.95 696.002 1251.15 699.758 1245.21 702.435 C 1240.56 704.546 1235.73 705.823 1230.78 706.269 C 1233.87 717.989 1239.78 728.792 1248.14 735.532 C 1258.05 743.533 1269.03 743.376 1276.94 735.125 C 1277.62 734.445 1278.23 733.725 1278.82 732.97 C 1279.65 731.759 1280.46 730.535 1281.18 729.297 L 1281.21 729.297 C 1304.38 690.703 1282.38 638.641 1235.9 630.306 C 1212.62 626.132 1188.88 634.698 1173.63 652.779 C 1140.72 691.735 1162.37 751.675 1212.54 760.671 C 1221.1 762.205 1229.73 762.018 1237.96 760.269 C 1238.78 760.021 1239.63 759.885 1240.54 759.885 C 1244.96 759.885 1248.54 763.172 1248.54 767.224 C 1248.54 771.003 1245.4 774.117 1241.42 774.519 C 1231.53 776.652 1220.92 776.939 1209.96 774.979 C 1181.58 769.887 1158.05 750.033 1148.26 722.892 C 1127.17 664.413 1177.29 605.028 1238.46 615.998 C 1266.88 621.09 1290.38 640.944 1300.2 668.085 Z M 1222.3 699.501 C 1226.01 699.501 1229.83 698.757 1233.81 697.268 C 1237.77 695.77 1241.12 693.196 1243.9 689.546 C 1246.69 685.888 1248.09 681.074 1248.09 675.104 C 1248.09 666.047 1245.18 660.024 1239.44 657.04 C 1233.67 654.053 1227.54 652.561 1221.07 652.561 C 1218.38 652.561 1216.38 652.846 1215.05 653.415 C 1213.7 653.978 1212.76 655.082 1212.19 656.73 C 1211.62 658.378 1211.34 660.949 1211.34 664.452 L 1211.34 697.8 C 1213.79 698.935 1217.44 699.501 1222.3 699.501 Z" style="fill: rgb(255, 255, 255); stroke-width: 1; transform-box: fill-box; transform-origin: 50% 50%;" transform="matrix(0.963474, 0.267803, -0.267803, 0.963474, 0.000004, -0.000014)"/>
  </g>
</svg>