<?xml version="1.0" encoding="utf-8"?>
<svg width="313" height="241" viewBox="0 0 313 241" fill="none" xmlns="http://www.w3.org/2000/svg">
  <rect x="0.0546875" y="0.0708008" width="312.029" height="240.023" fill="#00A0D2"/>
  <path d="M22.8066 62.757C22.8066 61.6523 23.7022 60.7568 24.8068 60.7568H287.332C288.437 60.7568 289.332 61.6524 289.332 62.757V240.094H22.8066V62.757Z" fill="white"/>
  <g clip-path="url(#clip0_75:3680)">
    <rect x="22.8066" y="60.5767" width="30.0028" height="29.5028" fill="#1E1E1E"/>
    <path d="M 48.216 70.723 C 49.376 73.938 49.038 77.171 47.687 79.85 C 47.07 81.106 46.289 82.295 45.193 83.169 L 44.976 83.295 C 43.966 83.739 41.85 83.705 40.252 82.416 C 38.611 81.092 37.333 78.79 36.75 76.186 C 36.275 76.13 35.84 76.029 35.445 75.882 L 35.445 79.077 C 35.46 79.447 35.493 79.747 35.544 79.977 C 35.596 80.205 35.726 80.398 35.933 80.554 C 36.14 80.708 36.458 80.786 36.887 80.786 L 37.021 80.786 C 37.168 80.786 37.276 80.812 37.343 80.864 C 37.409 80.916 37.45 81.045 37.464 81.252 C 37.464 81.385 37.432 81.499 37.365 81.595 C 37.298 81.691 37.198 81.74 37.065 81.74 C 36.118 81.695 35.194 81.673 34.291 81.673 C 33.492 81.673 32.612 81.695 31.651 81.74 C 31.532 81.74 31.436 81.691 31.362 81.595 C 31.288 81.499 31.251 81.385 31.251 81.252 C 31.266 81.03 31.314 80.897 31.394 80.852 C 31.476 80.808 31.621 80.786 31.828 80.786 C 32.257 80.786 32.575 80.708 32.782 80.554 C 32.989 80.398 33.119 80.205 33.17 79.977 C 33.222 79.747 33.256 79.447 33.27 79.077 L 33.27 70.268 C 33.256 69.898 33.222 69.598 33.17 69.37 C 33.119 69.14 32.989 68.947 32.782 68.791 C 32.575 68.636 32.257 68.559 31.828 68.559 L 31.695 68.559 C 31.547 68.559 31.44 68.533 31.374 68.482 C 31.307 68.43 31.266 68.3 31.251 68.093 C 31.251 67.96 31.288 67.845 31.362 67.748 C 31.436 67.652 31.532 67.605 31.651 67.605 C 32.612 67.649 33.5 67.671 34.313 67.671 L 37.642 67.671 C 38.929 67.671 40.175 67.938 41.38 68.47 C 42.586 69.003 43.189 70.068 43.189 71.666 C 43.189 72.553 42.923 73.345 42.391 74.04 C 41.858 74.735 41.167 75.275 40.317 75.66 C 39.645 75.963 38.953 76.147 38.241 76.211 C 38.684 77.895 39.534 79.448 40.735 80.417 C 42.16 81.566 43.739 81.544 44.877 80.358 C 44.971 80.26 45.06 80.157 45.145 80.048 C 45.265 79.874 45.379 79.698 45.486 79.521 L 45.488 79.521 C 48.818 73.974 45.659 66.492 38.978 65.294 C 35.631 64.694 32.219 65.925 30.026 68.524 C 25.3 74.122 28.408 82.737 35.619 84.029 C 36.85 84.25 38.089 84.223 39.273 83.972 C 39.388 83.936 39.512 83.916 39.641 83.916 C 40.277 83.916 40.792 84.389 40.792 84.971 C 40.792 85.514 40.344 85.962 39.768 86.02 C 38.346 86.326 36.824 86.368 35.251 86.086 C 31.169 85.354 27.788 82.501 26.381 78.6 C 23.35 70.196 30.552 61.661 39.347 63.238 C 43.428 63.969 46.809 66.823 48.216 70.723 Z M 37.021 75.238 C 37.553 75.238 38.104 75.131 38.674 74.917 C 39.243 74.702 39.728 74.332 40.127 73.808 C 40.527 73.282 40.727 72.59 40.727 71.732 C 40.727 70.43 40.312 69.565 39.484 69.136 C 38.655 68.707 37.775 68.492 36.843 68.492 C 36.458 68.492 36.17 68.533 35.978 68.615 C 35.785 68.696 35.649 68.855 35.568 69.092 C 35.486 69.328 35.445 69.698 35.445 70.201 L 35.445 74.994 C 35.8 75.157 36.325 75.238 37.021 75.238 Z" style="fill: rgb(255, 255, 255);"/>
  </g>
  <rect x="22.8066" y="90.3091" width="202.855" height="149.784" fill="#EEEEEE"/>
  <rect x="71.7949" y="116.594" width="105.235" height="11.53" fill="white"/>
  <rect x="71.7949" y="132.124" width="54.4326" height="11.53" fill="#F2BC40"/>
  <rect x="71.7949" y="151.654" width="105.235" height="11.53" fill="white"/>
  <rect x="71.7949" y="167.184" width="54.4323" height="11.53" fill="#F2BC40"/>
  <rect x="71.7949" y="186.714" width="105.235" height="11.53" fill="white"/>
  <rect x="71.7949" y="202.244" width="54.4323" height="11.53" fill="#F2BC40"/>
  <rect x="225.661" y="90.3091" width="63.6705" height="149.784" fill="white"/>
  <circle cx="243.698" cy="155.127" r="5.54549" fill="white" stroke="#CCCCCC" stroke-width="0.386813"/>
  <circle cx="257.497" cy="155.127" r="5.73889" fill="#ADB8C2"/>
  <circle cx="271.296" cy="155.127" r="5.73889" fill="black"/>
  <circle cx="243.698" cy="170.086" r="5.73889" fill="#E992A7"/>
  <circle cx="257.497" cy="170.086" r="5.73889" fill="#BF3D36"/>
  <circle cx="271.296" cy="170.086" r="5.73889" fill="#ED722E"/>
  <circle cx="243.698" cy="185.045" r="5.73889" fill="#F2BC40"/>
  <circle cx="243.698" cy="185.045" r="5.73889" stroke="#C79C39"/>
  <circle cx="257.497" cy="185.045" r="5.73889" fill="#93DAB7"/>
  <circle cx="271.296" cy="185.045" r="5.73889" fill="#5ECD8A"/>
  <circle cx="243.698" cy="200.005" r="5.73889" fill="#9DCFF8"/>
  <circle cx="257.497" cy="200.005" r="5.73889" fill="#4191DD"/>
  <circle cx="271.296" cy="200.005" r="5.73889" fill="#9155D8"/>
  <rect x="230.417" y="98.7192" width="54.1585" height="35.1795" rx="1.60929" fill="#00A0D2"/>
  <path d="M246.651 119.605H240.936L239.935 121.935C239.688 122.508 239.565 122.936 239.565 123.219C239.565 123.444 239.67 123.643 239.881 123.818C240.098 123.984 240.563 124.093 241.274 124.144V124.547H236.626V124.144C237.243 124.035 237.642 123.894 237.823 123.72C238.193 123.371 238.603 122.664 239.053 121.597L244.245 109.45H244.626L249.764 121.728C250.178 122.715 250.551 123.357 250.885 123.654C251.226 123.945 251.698 124.108 252.3 124.144V124.547H246.477V124.144C247.064 124.115 247.46 124.017 247.663 123.85C247.874 123.683 247.979 123.48 247.979 123.241C247.979 122.921 247.834 122.417 247.543 121.728L246.651 119.605ZM246.346 118.8L243.843 112.835L241.274 118.8H246.346Z" fill="white"/>
  <path d="M258.907 123.11C257.884 123.901 257.242 124.358 256.98 124.482C256.589 124.663 256.171 124.754 255.729 124.754C255.039 124.754 254.47 124.518 254.02 124.046C253.577 123.575 253.356 122.954 253.356 122.185C253.356 121.699 253.465 121.278 253.682 120.922C253.98 120.429 254.495 119.964 255.228 119.529C255.968 119.094 257.195 118.564 258.907 117.94V117.548C258.907 116.554 258.747 115.872 258.428 115.502C258.116 115.132 257.659 114.947 257.057 114.947C256.6 114.947 256.237 115.07 255.968 115.317C255.692 115.563 255.555 115.846 255.555 116.166L255.576 116.797C255.576 117.131 255.489 117.388 255.315 117.57C255.148 117.751 254.927 117.842 254.651 117.842C254.383 117.842 254.161 117.748 253.987 117.559C253.82 117.37 253.737 117.113 253.737 116.786C253.737 116.162 254.056 115.589 254.695 115.066C255.333 114.544 256.229 114.283 257.383 114.283C258.269 114.283 258.994 114.431 259.56 114.729C259.988 114.954 260.304 115.306 260.507 115.785C260.638 116.097 260.703 116.735 260.703 117.7V121.086C260.703 122.036 260.721 122.62 260.757 122.838C260.794 123.048 260.852 123.19 260.932 123.262C261.019 123.335 261.117 123.371 261.226 123.371C261.342 123.371 261.443 123.346 261.53 123.295C261.683 123.201 261.977 122.936 262.412 122.501V123.11C261.599 124.199 260.823 124.743 260.083 124.743C259.727 124.743 259.444 124.619 259.234 124.373C259.023 124.126 258.914 123.705 258.907 123.11ZM258.907 122.403V118.604C257.811 119.039 257.104 119.348 256.785 119.529C256.211 119.848 255.801 120.182 255.555 120.53C255.308 120.879 255.184 121.26 255.184 121.673C255.184 122.196 255.341 122.631 255.653 122.979C255.965 123.321 256.324 123.491 256.73 123.491C257.282 123.491 258.007 123.128 258.907 122.403Z" fill="white"/>
  <circle cx="274.06" cy="110.127" r="4.48027" fill="white"/>
  <circle cx="274.06" cy="122.49" r="4.48027" fill="white"/>
  <rect x="266.523" y="66.0435" width="18.5696" height="18.5696" rx="0.687763" fill="black"/>
  <circle cx="275.808" cy="75.3285" r="4.51344" stroke="white" stroke-width="0.601793"/>
  <path d="M275.808 75.3285C275.808 77.9874 275.808 80.1428 275.808 80.1428C273.15 80.1428 270.994 77.9874 270.994 75.3285C270.994 72.6696 273.15 70.5142 275.808 70.5142C275.808 70.5142 275.808 72.6696 275.808 75.3285Z" fill="white"/>
  <mask id="path-33-inside-1_75:3680" fill="white">
    <path fill-rule="evenodd" clip-rule="evenodd" d="M253.774 191.397L243.849 184.208L245.113 196.398L248.252 194.585L250.311 198.151C250.691 198.809 251.532 199.034 252.19 198.655C252.848 198.275 253.073 197.433 252.693 196.775L250.635 193.21L253.774 191.397Z"/>
  </mask>
  <path fill-rule="evenodd" clip-rule="evenodd" d="M253.774 191.397L243.849 184.208L245.113 196.398L248.252 194.585L250.311 198.151C250.691 198.809 251.532 199.034 252.19 198.655C252.848 198.275 253.073 197.433 252.693 196.775L250.635 193.21L253.774 191.397Z" fill="white"/>
  <path d="M243.849 184.208L244.142 183.803L243.236 183.147L243.352 184.26L243.849 184.208ZM253.774 191.397L254.024 191.83L254.692 191.445L254.067 190.992L253.774 191.397ZM245.113 196.398L244.615 196.449L244.695 197.217L245.363 196.831L245.113 196.398ZM248.252 194.585L248.685 194.335L248.435 193.902L248.002 194.152L248.252 194.585ZM250.635 193.21L250.385 192.777L249.952 193.027L250.202 193.46L250.635 193.21ZM243.556 184.613L253.48 191.802L254.067 190.992L244.142 183.803L243.556 184.613ZM245.61 196.346L244.346 184.157L243.352 184.26L244.615 196.449L245.61 196.346ZM248.002 194.152L244.863 195.965L245.363 196.831L248.502 195.018L248.002 194.152ZM250.744 197.901L248.685 194.335L247.819 194.835L249.878 198.401L250.744 197.901ZM251.94 198.221C251.521 198.463 250.986 198.32 250.744 197.901L249.878 198.401C250.396 199.298 251.543 199.606 252.44 199.088L251.94 198.221ZM252.26 197.026C252.502 197.444 252.358 197.98 251.94 198.221L252.44 199.088C253.337 198.57 253.644 197.423 253.126 196.525L252.26 197.026ZM250.202 193.46L252.26 197.026L253.126 196.525L251.068 192.96L250.202 193.46ZM253.524 190.964L250.385 192.777L250.885 193.643L254.024 191.83L253.524 190.964Z" fill="black" mask="url(#path-33-inside-1_75:3680)"/>
  <defs>
    <clipPath id="clip0_75:3680">
      <path d="M22.8066 62.5768C22.8066 61.4722 23.7022 60.5767 24.8068 60.5767H52.8095V90.0794H22.8066V62.5768Z" fill="white"/>
    </clipPath>
  </defs>
</svg>