<?xml version="1.0" encoding="utf-8"?>
<svg width="313" height="241" viewBox="0 0 313 241" fill="none" xmlns="http://www.w3.org/2000/svg">
  <rect x="0.0546875" y="0.64502" width="312.029" height="240.023" fill="#00A0D2"/>
  <path d="M22.8066 63.3312C22.8066 62.2266 23.7022 61.3311 24.8068 61.3311H287.332C288.437 61.3311 289.332 62.2266 289.332 63.3312V240.668H22.8066V63.3312Z" fill="white"/>
  <g clip-path="url(#clip0_75:3496)">
    <rect x="22.8066" y="61.1509" width="30.0028" height="29.5028" fill="#1E1E1E"/>
    <path d="M 48.423 71.821 C 49.583 75.036 49.245 78.269 47.894 80.948 C 47.277 82.204 46.496 83.393 45.4 84.267 L 45.183 84.393 C 44.173 84.837 42.057 84.803 40.459 83.514 C 38.818 82.19 37.54 79.888 36.957 77.284 C 36.482 77.228 36.047 77.127 35.652 76.98 L 35.652 80.175 C 35.667 80.545 35.7 80.845 35.751 81.075 C 35.803 81.303 35.933 81.496 36.14 81.652 C 36.347 81.806 36.665 81.884 37.094 81.884 L 37.228 81.884 C 37.375 81.884 37.483 81.91 37.55 81.962 C 37.616 82.014 37.657 82.143 37.671 82.35 C 37.671 82.483 37.639 82.597 37.572 82.693 C 37.505 82.789 37.405 82.838 37.272 82.838 C 36.325 82.793 35.401 82.771 34.498 82.771 C 33.699 82.771 32.819 82.793 31.858 82.838 C 31.739 82.838 31.643 82.789 31.569 82.693 C 31.495 82.597 31.458 82.483 31.458 82.35 C 31.473 82.128 31.521 81.995 31.601 81.95 C 31.683 81.906 31.828 81.884 32.035 81.884 C 32.464 81.884 32.782 81.806 32.989 81.652 C 33.196 81.496 33.326 81.303 33.377 81.075 C 33.429 80.845 33.463 80.545 33.477 80.175 L 33.477 71.366 C 33.463 70.996 33.429 70.696 33.377 70.468 C 33.326 70.238 33.196 70.045 32.989 69.889 C 32.782 69.734 32.464 69.657 32.035 69.657 L 31.902 69.657 C 31.754 69.657 31.647 69.631 31.581 69.58 C 31.514 69.528 31.473 69.398 31.458 69.191 C 31.458 69.058 31.495 68.943 31.569 68.846 C 31.643 68.75 31.739 68.703 31.858 68.703 C 32.819 68.747 33.707 68.769 34.52 68.769 L 37.849 68.769 C 39.136 68.769 40.382 69.036 41.587 69.568 C 42.793 70.101 43.396 71.166 43.396 72.764 C 43.396 73.651 43.13 74.443 42.598 75.138 C 42.065 75.833 41.374 76.373 40.524 76.758 C 39.852 77.061 39.16 77.245 38.448 77.309 C 38.891 78.993 39.741 80.546 40.942 81.515 C 42.367 82.664 43.946 82.642 45.084 81.456 C 45.178 81.358 45.267 81.255 45.352 81.146 C 45.472 80.972 45.586 80.796 45.693 80.619 L 45.695 80.619 C 49.025 75.072 45.866 67.59 39.185 66.392 C 35.838 65.792 32.426 67.023 30.233 69.622 C 25.507 75.22 28.615 83.835 35.826 85.127 C 37.057 85.348 38.296 85.321 39.48 85.07 C 39.595 85.034 39.719 85.014 39.848 85.014 C 40.484 85.014 40.999 85.487 40.999 86.069 C 40.999 86.612 40.551 87.06 39.975 87.118 C 38.553 87.424 37.031 87.466 35.458 87.184 C 31.376 86.452 27.995 83.599 26.588 79.698 C 23.557 71.294 30.759 62.759 39.554 64.336 C 43.635 65.067 47.016 67.921 48.423 71.821 Z M 37.228 76.336 C 37.76 76.336 38.311 76.229 38.881 76.015 C 39.45 75.8 39.935 75.43 40.334 74.906 C 40.734 74.38 40.934 73.688 40.934 72.83 C 40.934 71.528 40.519 70.663 39.691 70.234 C 38.862 69.805 37.982 69.59 37.05 69.59 C 36.665 69.59 36.377 69.631 36.185 69.713 C 35.992 69.794 35.856 69.953 35.775 70.19 C 35.693 70.426 35.652 70.796 35.652 71.299 L 35.652 76.092 C 36.007 76.255 36.532 76.336 37.228 76.336 Z" style="fill: rgb(255, 255, 255);"/>
  </g>
  <rect x="22.8066" y="90.8833" width="202.855" height="149.784" fill="#EEEEEE"/>
  <rect x="34.9756" y="101.02" width="178.517" height="129.512" rx="3.35888" fill="white"/>
  <g transform="matrix(1, 0, 0, 1, 0.355373, 3.196161)">
    <path d="M 76.194 156.95 C 76.194 158.271 75.82 159.381 75.073 160.279 C 74.326 161.177 73.282 161.795 71.942 162.132 L 75.579 169.583 L 78.094 169.583 L 78.094 172.153 L 73.473 172.153 L 68.92 162.555 L 66.036 162.555 L 66.036 169.583 L 68.661 169.583 L 68.661 172.153 L 60.129 172.153 L 60.129 169.583 L 62.919 169.583 L 62.919 154.12 L 60.129 154.12 L 60.129 151.549 L 68.688 151.549 C 71.341 151.549 73.255 151.982 74.43 152.848 C 75.606 153.714 76.194 155.081 76.194 156.95 Z M 72.981 156.895 C 72.981 155.938 72.68 155.237 72.079 154.79 C 71.477 154.343 70.524 154.12 69.221 154.12 L 66.036 154.12 L 66.036 159.971 L 69.03 159.971 C 70.37 159.971 71.363 159.739 72.01 159.274 C 72.657 158.809 72.981 158.016 72.981 156.895 Z" style="fill: rgb(51, 51, 51); text-wrap-mode: nowrap;"/>
    <path d="M 92.45 165.664 L 80.405 165.664 C 80.578 167.041 81.112 168.128 82.005 168.925 C 82.898 169.722 83.992 170.121 85.286 170.121 C 86.234 170.121 87.114 169.925 87.925 169.533 C 88.736 169.141 89.415 168.54 89.962 167.729 L 92.45 168.85 C 91.666 170.071 90.638 170.994 89.367 171.618 C 88.096 172.243 86.713 172.555 85.218 172.555 C 83.669 172.555 82.292 172.231 81.089 171.584 C 79.886 170.937 78.949 170.034 78.279 168.877 C 77.609 167.72 77.274 166.416 77.274 164.967 C 77.274 163.527 77.605 162.228 78.266 161.07 C 78.927 159.913 79.831 159.008 80.979 158.357 C 82.128 157.705 83.395 157.379 84.78 157.379 C 86.293 157.379 87.613 157.714 88.738 158.384 C 89.864 159.054 90.75 160.011 91.397 161.255 C 92.044 162.499 92.395 163.969 92.45 165.664 Z M 84.835 159.731 C 83.768 159.731 82.834 160.089 82.032 160.804 C 81.23 161.519 80.715 162.465 80.487 163.641 L 89.483 163.641 C 89.219 162.465 88.659 161.519 87.802 160.804 C 86.945 160.089 85.956 159.731 84.835 159.731 Z" style="fill: rgb(51, 51, 51); text-wrap-mode: nowrap;"/>
    <path d="M 99.778 157.94 L 99.778 160.469 L 97.153 160.469 L 97.153 168.002 C 97.153 168.786 97.237 169.294 97.406 169.527 C 97.575 169.759 97.864 169.875 98.274 169.875 C 98.775 169.875 99.277 169.789 99.778 169.616 L 99.778 172.172 C 98.903 172.427 98.196 172.555 97.659 172.555 C 96.474 172.555 95.621 172.257 95.102 171.66 C 94.583 171.063 94.323 170.039 94.323 168.59 L 94.323 160.469 L 92.45 160.469 L 92.45 157.94 L 94.323 157.94 L 94.323 155.766 L 97.153 153.182 L 97.153 157.94 L 99.778 157.94 Z" style="fill: rgb(51, 51, 51); text-wrap-mode: nowrap;"/>
    <path d="M 181.571 166.785 L 181.571 170.039 L 184.702 170.039 L 184.702 172.555 L 175.883 172.555 L 175.883 170.039 L 178.768 170.039 L 178.768 160.715 L 175.883 160.715 L 175.883 158.186 L 181.01 158.186 L 181.01 161.44 C 181.585 160.155 182.298 159.259 183.15 158.753 C 184.002 158.247 185.221 157.994 186.807 157.994 L 187.45 157.994 L 187.45 160.852 L 186.834 160.852 C 185.303 160.852 184.164 161.052 183.416 161.453 C 182.669 161.854 182.174 162.461 181.933 163.272 C 181.692 164.083 181.571 165.254 181.571 166.785 Z" style="fill: rgb(51, 51, 51); text-wrap-mode: nowrap;"/>
    <path d="M 125.631 163.012 L 125.631 169.793 L 128.037 169.793 L 128.037 172.309 L 123.142 172.309 L 123.142 170.545 C 121.775 171.885 120.253 172.555 118.576 172.555 C 117.692 172.555 116.883 172.35 116.149 171.94 C 115.416 171.53 114.828 170.981 114.386 170.292 C 113.944 169.604 113.723 168.841 113.723 168.002 C 113.723 167.1 113.967 166.296 114.454 165.589 C 114.941 164.883 115.6 164.338 116.43 163.955 C 117.259 163.572 118.093 163.381 118.932 163.381 C 120.335 163.381 121.643 163.791 122.855 164.612 L 122.855 163.067 C 122.855 161.946 122.618 161.144 122.144 160.661 C 121.67 160.178 120.891 159.936 119.807 159.936 C 119.041 159.936 118.401 160.075 117.886 160.353 C 117.371 160.631 116.944 161.053 116.607 161.618 L 113.9 160.948 C 114.511 159.809 115.336 158.959 116.375 158.398 C 117.414 157.837 118.649 157.557 120.08 157.557 C 122.003 157.557 123.409 157.995 124.298 158.87 C 125.187 159.745 125.631 161.125 125.631 163.012 Z M 118.959 170.381 C 120.344 170.381 121.643 169.802 122.855 168.645 L 122.855 166.963 C 121.625 166.006 120.395 165.528 119.164 165.528 C 118.417 165.528 117.772 165.763 117.229 166.232 C 116.687 166.701 116.416 167.291 116.416 168.002 C 116.416 168.686 116.653 169.254 117.127 169.705 C 117.601 170.156 118.212 170.381 118.959 170.381 Z" style="fill: rgb(51, 51, 51); text-wrap-mode: nowrap;"/>
    <path d="M 138.516 158.801 L 138.516 157.762 L 141.032 157.762 L 141.032 163.203 L 138.516 163.203 C 138.407 162.155 137.987 161.355 137.258 160.804 C 136.529 160.253 135.686 159.977 134.729 159.977 C 133.909 159.977 133.173 160.196 132.521 160.633 C 131.87 161.07 131.366 161.663 131.01 162.41 C 130.655 163.157 130.477 163.973 130.477 164.858 C 130.477 166.361 130.878 167.589 131.68 168.542 C 132.482 169.495 133.539 169.971 134.852 169.971 C 136.885 169.971 138.32 169.028 139.159 167.141 L 141.51 168.262 C 140.189 171.124 137.928 172.555 134.729 172.555 C 133.298 172.555 132.027 172.218 130.915 171.543 C 129.803 170.868 128.944 169.943 128.338 168.768 C 127.731 167.592 127.428 166.289 127.428 164.858 C 127.428 163.454 127.736 162.178 128.351 161.029 C 128.966 159.881 129.812 158.986 130.887 158.343 C 131.963 157.7 133.162 157.379 134.483 157.379 C 136.051 157.379 137.395 157.853 138.516 158.801 Z" style="fill: rgb(51, 51, 51); text-wrap-mode: nowrap;"/>
    <path d="M 157.988 165.664 L 145.943 165.664 C 146.116 167.041 146.65 168.128 147.543 168.925 C 148.436 169.722 149.53 170.121 150.824 170.121 C 151.772 170.121 152.652 169.925 153.463 169.533 C 154.274 169.141 154.953 168.54 155.5 167.729 L 157.988 168.85 C 157.204 170.071 156.176 170.994 154.905 171.618 C 153.634 172.243 152.251 172.555 150.756 172.555 C 149.207 172.555 147.83 172.231 146.627 171.584 C 145.424 170.937 144.487 170.034 143.817 168.877 C 143.147 167.72 142.812 166.416 142.812 164.967 C 142.812 163.527 143.143 162.228 143.804 161.07 C 144.465 159.913 145.369 159.008 146.517 158.357 C 147.666 157.705 148.933 157.379 150.318 157.379 C 151.831 157.379 153.151 157.714 154.276 158.384 C 155.402 159.054 156.288 160.011 156.935 161.255 C 157.582 162.499 157.933 163.969 157.988 165.664 Z M 150.373 159.731 C 149.306 159.731 148.372 160.089 147.57 160.804 C 146.768 161.519 146.253 162.465 146.025 163.641 L 155.021 163.641 C 154.757 162.465 154.197 161.519 153.34 160.804 C 152.483 160.089 151.494 159.731 150.373 159.731 Z" style="fill: rgb(51, 51, 51); text-wrap-mode: nowrap;"/>
    <path d="M 164.907 170.094 C 166.174 170.094 167.545 169.479 169.022 168.248 L 169.022 160.469 L 166.479 160.469 L 166.479 157.94 L 171.852 157.94 L 171.852 169.793 L 174.313 169.793 L 174.313 172.309 L 169.022 172.309 L 169.022 170.655 C 167.363 171.922 165.787 172.555 164.292 172.555 C 162.943 172.555 161.947 172.154 161.304 171.352 C 160.661 170.55 160.34 169.219 160.34 167.36 L 160.34 160.469 L 158.331 160.469 L 158.331 157.94 L 163.171 157.94 L 163.171 167.948 C 163.171 168.686 163.305 169.228 163.574 169.575 C 163.843 169.921 164.287 170.094 164.907 170.094 Z" style="fill: rgb(51, 51, 51); text-wrap-mode: nowrap;"/>
    <path d="M 107.09 166.785 L 107.09 170.039 L 110.221 170.039 L 110.221 172.555 L 101.402 172.555 L 101.402 170.039 L 104.287 170.039 L 104.287 160.715 L 101.402 160.715 L 101.402 158.186 L 106.529 158.186 L 106.529 161.44 C 107.104 160.155 107.817 159.259 108.669 158.753 C 109.521 158.247 110.74 157.994 112.326 157.994 L 112.969 157.994 L 112.969 160.852 L 112.353 160.852 C 110.822 160.852 109.683 161.052 108.935 161.453 C 108.188 161.854 107.693 162.461 107.452 163.272 C 107.211 164.083 107.09 165.254 107.09 166.785 Z" style="fill: rgb(51, 51, 51); text-wrap-mode: nowrap;"/>
  </g>
  <rect x="225.661" y="90.8833" width="63.6705" height="149.784" fill="white"/>
  <path d="M240.254 162.885H237.9L237.488 163.844C237.386 164.08 237.336 164.257 237.336 164.373C237.336 164.466 237.379 164.548 237.466 164.62C237.555 164.689 237.747 164.734 238.039 164.754V164.92H236.125V164.754C236.379 164.71 236.543 164.651 236.618 164.58C236.771 164.436 236.94 164.145 237.125 163.705L239.264 158.702H239.42L241.537 163.759C241.707 164.166 241.861 164.43 241.998 164.553C242.139 164.672 242.333 164.74 242.581 164.754V164.92H240.183V164.754C240.425 164.743 240.588 164.702 240.671 164.633C240.758 164.565 240.801 164.481 240.801 164.382C240.801 164.251 240.742 164.043 240.622 163.759L240.254 162.885ZM240.129 162.553L239.098 160.096L238.039 162.553H240.129Z" fill="black"/>
  <path d="M245.303 164.329C244.881 164.654 244.617 164.843 244.509 164.893C244.348 164.968 244.176 165.006 243.994 165.006C243.71 165.006 243.475 164.908 243.29 164.714C243.107 164.52 243.016 164.264 243.016 163.947C243.016 163.747 243.061 163.574 243.151 163.427C243.273 163.224 243.486 163.033 243.787 162.853C244.092 162.674 244.597 162.456 245.303 162.199V162.037C245.303 161.628 245.237 161.347 245.106 161.195C244.977 161.042 244.789 160.966 244.541 160.966C244.352 160.966 244.203 161.017 244.092 161.118C243.979 161.22 243.922 161.337 243.922 161.468L243.931 161.728C243.931 161.866 243.895 161.972 243.823 162.046C243.755 162.121 243.663 162.159 243.55 162.159C243.439 162.159 243.348 162.12 243.276 162.042C243.208 161.964 243.173 161.858 243.173 161.724C243.173 161.467 243.305 161.23 243.568 161.015C243.831 160.8 244.2 160.692 244.675 160.692C245.04 160.692 245.339 160.754 245.572 160.876C245.748 160.969 245.878 161.114 245.962 161.311C246.016 161.44 246.043 161.703 246.043 162.1V163.495C246.043 163.886 246.05 164.127 246.065 164.216C246.08 164.303 246.104 164.361 246.137 164.391C246.173 164.421 246.213 164.436 246.258 164.436C246.306 164.436 246.348 164.426 246.383 164.405C246.446 164.366 246.567 164.257 246.747 164.077V164.329C246.412 164.777 246.092 165.001 245.787 165.001C245.641 165.001 245.524 164.95 245.437 164.849C245.351 164.747 245.306 164.574 245.303 164.329ZM245.303 164.037V162.472C244.852 162.652 244.56 162.779 244.429 162.853C244.192 162.985 244.024 163.122 243.922 163.266C243.82 163.409 243.77 163.566 243.77 163.737C243.77 163.952 243.834 164.131 243.962 164.275C244.091 164.415 244.239 164.485 244.406 164.485C244.633 164.485 244.932 164.336 245.303 164.037Z" fill="black"/>
  <rect x="252.059" y="159.199" width="28.5793" height="5.31081" rx="0.885133" fill="#00A0D2"/>
  <path d="M244.63 180.681C244.63 182.413 243.225 183.817 241.493 183.817C239.761 183.817 238.357 182.413 238.357 180.681C238.357 180.301 238.536 179.77 238.866 179.144C239.188 178.532 239.622 177.884 240.065 177.287C240.506 176.692 240.948 176.157 241.28 175.77C241.358 175.679 241.429 175.597 241.493 175.524C241.557 175.597 241.629 175.679 241.706 175.77C242.039 176.157 242.481 176.692 242.922 177.287C243.364 177.884 243.799 178.532 244.121 179.144C244.45 179.77 244.63 180.301 244.63 180.681Z" stroke="#1E1E1E" stroke-width="0.920358"/>
  <rect x="252.059" y="176.901" width="28.5793" height="5.31081" rx="0.885133" fill="#00A0D2"/>
  <path fill-rule="evenodd" clip-rule="evenodd" d="M244.977 193.424H237.896C237.733 193.424 237.601 193.556 237.601 193.719V195.489H245.272V193.719C245.272 193.556 245.14 193.424 244.977 193.424ZM245.272 196.374H240.256L240.256 201.095H244.977C245.14 201.095 245.272 200.963 245.272 200.8V196.374ZM239.371 196.374H237.601V200.8C237.601 200.963 237.733 201.095 237.896 201.095H239.371L239.371 196.374ZM237.896 192.539H244.977C245.629 192.539 246.157 193.067 246.157 193.719V200.8C246.157 201.452 245.629 201.98 244.977 201.98H237.896C237.244 201.98 236.716 201.452 236.716 200.8V193.719C236.716 193.067 237.244 192.539 237.896 192.539Z" fill="#1E1E1E"/>
  <rect x="252.059" y="194.604" width="28.5793" height="5.31081" rx="0.885133" fill="#00A0D2"/>
  <rect x="230.417" y="99.2935" width="54.1585" height="35.1795" rx="1.60929" fill="#00A0D2"/>
  <path d="M246.651 120.179H240.936L239.935 122.509C239.688 123.082 239.565 123.51 239.565 123.793C239.565 124.018 239.67 124.218 239.881 124.392C240.098 124.559 240.563 124.668 241.274 124.718V125.121H236.626V124.718C237.243 124.61 237.642 124.468 237.823 124.294C238.193 123.946 238.603 123.238 239.053 122.171L244.245 110.024H244.626L249.764 122.302C250.178 123.289 250.551 123.931 250.885 124.229C251.226 124.519 251.698 124.682 252.3 124.718V125.121H246.477V124.718C247.064 124.689 247.46 124.591 247.663 124.424C247.874 124.258 247.979 124.054 247.979 123.815C247.979 123.496 247.834 122.991 247.543 122.302L246.651 120.179ZM246.346 119.374L243.843 113.409L241.274 119.374H246.346Z" fill="white"/>
  <path d="M258.907 123.684C257.884 124.475 257.242 124.932 256.98 125.056C256.589 125.237 256.171 125.328 255.729 125.328C255.039 125.328 254.47 125.092 254.02 124.62C253.577 124.149 253.356 123.528 253.356 122.759C253.356 122.273 253.465 121.852 253.682 121.496C253.98 121.003 254.495 120.539 255.228 120.103C255.968 119.668 257.195 119.138 258.907 118.514V118.122C258.907 117.128 258.747 116.446 258.428 116.076C258.116 115.706 257.659 115.521 257.057 115.521C256.6 115.521 256.237 115.644 255.968 115.891C255.692 116.138 255.555 116.421 255.555 116.74L255.576 117.371C255.576 117.705 255.489 117.963 255.315 118.144C255.148 118.325 254.927 118.416 254.651 118.416C254.383 118.416 254.161 118.322 253.987 118.133C253.82 117.944 253.737 117.687 253.737 117.36C253.737 116.736 254.056 116.163 254.695 115.64C255.333 115.118 256.229 114.857 257.383 114.857C258.269 114.857 258.994 115.006 259.56 115.303C259.988 115.528 260.304 115.88 260.507 116.359C260.638 116.671 260.703 117.309 260.703 118.275V121.66C260.703 122.61 260.721 123.194 260.757 123.412C260.794 123.623 260.852 123.764 260.932 123.837C261.019 123.909 261.117 123.946 261.226 123.946C261.342 123.946 261.443 123.92 261.53 123.869C261.683 123.775 261.977 123.51 262.412 123.075V123.684C261.599 124.773 260.823 125.317 260.083 125.317C259.727 125.317 259.444 125.194 259.234 124.947C259.023 124.7 258.914 124.279 258.907 123.684ZM258.907 122.977V119.178C257.811 119.613 257.104 119.922 256.785 120.103C256.211 120.423 255.801 120.756 255.555 121.105C255.308 121.453 255.184 121.834 255.184 122.248C255.184 122.77 255.341 123.205 255.653 123.554C255.965 123.895 256.324 124.065 256.73 124.065C257.282 124.065 258.007 123.702 258.907 122.977Z" fill="white"/>
  <circle cx="274.06" cy="110.701" r="4.48027" fill="white"/>
  <circle cx="274.06" cy="123.064" r="4.48027" fill="white"/>
  <rect x="266.523" y="66.6177" width="18.5696" height="18.5696" rx="0.687763" fill="black"/>
  <circle cx="275.808" cy="75.9027" r="4.51344" stroke="white" stroke-width="0.601793"/>
  <path d="M275.808 75.9027C275.808 78.5616 275.808 80.7171 275.808 80.7171C273.15 80.7171 270.994 78.5616 270.994 75.9027C270.994 73.2438 273.15 71.0884 275.808 71.0884C275.808 71.0884 275.808 73.2438 275.808 75.9027Z" fill="white"/>
  <mask id="path-23-inside-1_75:3496" fill="white">
    <path fill-rule="evenodd" clip-rule="evenodd" d="M276.776 204.473L266.851 197.283L268.115 209.473L271.254 207.661L273.313 211.227C273.693 211.884 274.534 212.11 275.192 211.73C275.85 211.35 276.075 210.509 275.695 209.851L273.637 206.285L276.776 204.473Z"/>
  </mask>
  <path fill-rule="evenodd" clip-rule="evenodd" d="M276.776 204.473L266.851 197.283L268.115 209.473L271.254 207.661L273.313 211.227C273.693 211.884 274.534 212.11 275.192 211.73C275.85 211.35 276.075 210.509 275.695 209.851L273.637 206.285L276.776 204.473Z" fill="white"/>
  <path d="M266.851 197.283L267.144 196.878L266.238 196.222L266.354 197.335L266.851 197.283ZM276.776 204.473L277.026 204.906L277.694 204.52L277.069 204.068L276.776 204.473ZM268.115 209.473L267.617 209.525L267.697 210.292L268.365 209.906L268.115 209.473ZM271.254 207.661L271.687 207.411L271.437 206.977L271.004 207.227L271.254 207.661ZM273.637 206.285L273.387 205.852L272.954 206.102L273.204 206.535L273.637 206.285ZM266.558 197.688L276.482 204.878L277.069 204.068L267.144 196.878L266.558 197.688ZM268.612 209.422L267.348 197.232L266.354 197.335L267.617 209.525L268.612 209.422ZM271.004 207.227L267.865 209.04L268.365 209.906L271.504 208.094L271.004 207.227ZM273.746 210.977L271.687 207.411L270.821 207.911L272.88 211.477L273.746 210.977ZM274.942 211.297C274.523 211.539 273.988 211.395 273.746 210.977L272.88 211.477C273.398 212.374 274.545 212.681 275.442 212.163L274.942 211.297ZM275.262 210.101C275.504 210.52 275.361 211.055 274.942 211.297L275.442 212.163C276.339 211.645 276.646 210.498 276.128 209.601L275.262 210.101ZM273.204 206.535L275.262 210.101L276.128 209.601L274.07 206.035L273.204 206.535ZM276.526 204.04L273.387 205.852L273.887 206.718L277.026 204.906L276.526 204.04Z" fill="black" mask="url(#path-23-inside-1_75:3496)"/>
  <defs>
    <clipPath id="clip0_75:3496">
      <path d="M22.8066 63.1511C22.8066 62.0464 23.7022 61.1509 24.8068 61.1509H52.8095V90.6537H22.8066V63.1511Z" fill="white"/>
    </clipPath>
  </defs>
</svg>