<?xml version="1.0" encoding="utf-8"?>
<svg xmlns="http://www.w3.org/2000/svg" width="624" height="480" fill="none">
  <g clip-path="url(#clip0)">
    <path fill="#2F2F2F" d="M0 0h624v480H0z"/>
    <rect width="420" height="459" x="102" y="74" fill="#fff" rx="2"/>
    <path fill="#007CBA" d="M102 430h420v50H102zM102 76a2 2 0 012-2h416a2 2 0 012 2v94H102V76z"/>
    <path fill="#DDD" d="M158 202h183v27H158zM158 237h308v27H158zM158 273h308v27H158zM158 308h308v27H158zM158 344h308v27H158zM158 379h86v27h-86z"/>
    <path d="M 339.172 112.439 C 342.012 120.31 341.184 128.225 337.876 134.784 C 336.366 137.859 334.454 140.77 331.771 142.91 L 331.24 143.218 C 328.767 144.305 323.586 144.223 319.674 141.066 C 315.656 137.824 312.527 132.189 311.1 125.814 C 309.937 125.676 308.873 125.429 307.905 125.07 L 307.905 132.891 C 307.942 133.797 308.023 134.532 308.148 135.095 C 308.275 135.653 308.593 136.126 309.1 136.507 C 309.607 136.885 310.385 137.076 311.435 137.076 L 311.764 137.076 C 312.124 137.076 312.388 137.139 312.552 137.266 C 312.714 137.394 312.814 137.71 312.849 138.216 C 312.849 138.542 312.77 138.821 312.606 139.056 C 312.442 139.291 312.197 139.411 311.871 139.411 C 309.553 139.301 307.29 139.247 305.08 139.247 C 303.123 139.247 300.969 139.301 298.616 139.411 C 298.325 139.411 298.09 139.291 297.909 139.056 C 297.728 138.821 297.637 138.542 297.637 138.216 C 297.674 137.673 297.791 137.347 297.987 137.237 C 298.188 137.13 298.543 137.076 299.05 137.076 C 300.1 137.076 300.878 136.885 301.385 136.507 C 301.893 136.126 302.21 135.653 302.335 135.095 C 302.463 134.532 302.546 133.797 302.58 132.891 L 302.58 111.325 C 302.546 110.419 302.463 109.684 302.335 109.126 C 302.21 108.563 301.893 108.091 301.385 107.709 C 300.878 107.329 300.1 107.141 299.05 107.141 L 298.724 107.141 C 298.362 107.141 298.1 107.077 297.939 106.952 C 297.774 106.825 297.674 106.507 297.637 106 C 297.637 105.674 297.728 105.393 297.909 105.155 C 298.09 104.92 298.325 104.805 298.616 104.805 C 300.969 104.913 303.144 104.967 305.133 104.967 L 313.284 104.967 C 316.435 104.967 319.485 105.62 322.436 106.923 C 325.388 108.228 326.865 110.835 326.865 114.748 C 326.865 116.919 326.213 118.858 324.91 120.559 C 323.606 122.261 321.914 123.584 319.833 124.526 C 318.188 125.268 316.494 125.719 314.75 125.875 C 315.835 129.997 317.916 133.8 320.857 136.172 C 324.345 138.986 328.211 138.931 330.997 136.028 C 331.227 135.788 331.445 135.535 331.654 135.269 C 331.947 134.842 332.226 134.412 332.488 133.979 L 332.493 133.979 C 340.645 120.398 332.912 102.08 316.555 99.147 C 308.361 97.678 300.008 100.692 294.638 107.055 C 283.067 120.761 290.677 141.852 308.331 145.016 C 311.345 145.556 314.379 145.49 317.277 144.876 C 317.559 144.788 317.863 144.738 318.178 144.738 C 319.735 144.738 320.996 145.897 320.996 147.322 C 320.996 148.651 319.899 149.748 318.489 149.89 C 315.007 150.639 311.281 150.742 307.43 150.052 C 297.437 148.259 289.159 141.275 285.714 131.724 C 278.294 111.148 295.926 90.252 317.458 94.114 C 327.45 95.903 335.727 102.891 339.172 112.439 Z M 311.764 123.493 C 313.066 123.493 314.415 123.231 315.81 122.707 C 317.204 122.18 318.391 121.274 319.368 119.991 C 320.347 118.704 320.837 117.009 320.837 114.909 C 320.837 111.722 319.821 109.604 317.794 108.554 C 315.765 107.503 313.609 106.977 311.328 106.977 C 310.385 106.977 309.68 107.077 309.21 107.278 C 308.738 107.476 308.405 107.865 308.206 108.446 C 308.005 109.024 307.905 109.929 307.905 111.161 L 307.905 122.895 C 308.774 123.295 310.059 123.493 311.764 123.493 Z" style="fill: rgb(255, 255, 255);"/>
  </g>
  <defs>
    <clipPath id="clip0">
      <path fill="#fff" d="M0 0h624v480H0z"/>
    </clipPath>
  </defs>
</svg>