<?xml version="1.0" encoding="utf-8"?>
<svg width="313" height="241" viewBox="0 0 313 241" fill="none" xmlns="http://www.w3.org/2000/svg">
  <rect x="0.0546875" y="0.171387" width="312.029" height="240.023" fill="#00A0D2"/>
  <path d="M22.8066 62.8571C22.8066 61.7524 23.7022 60.8569 24.8068 60.8569H287.332C288.437 60.8569 289.332 61.7524 289.332 62.8571V240.194H22.8066V62.8571Z" fill="white"/>
  <g clip-path="url(#clip0_75:3600)">
    <rect x="22.8066" y="60.6768" width="30.0028" height="29.5028" fill="#1E1E1E"/>
    <path d="M 48.576 71.476 C 49.736 74.691 49.398 77.924 48.047 80.603 C 47.43 81.859 46.649 83.048 45.553 83.922 L 45.336 84.048 C 44.326 84.492 42.21 84.458 40.612 83.169 C 38.971 81.845 37.693 79.543 37.11 76.939 C 36.635 76.883 36.2 76.782 35.805 76.635 L 35.805 79.83 C 35.82 80.2 35.853 80.5 35.904 80.73 C 35.956 80.958 36.086 81.151 36.293 81.307 C 36.5 81.461 36.818 81.539 37.247 81.539 L 37.381 81.539 C 37.528 81.539 37.636 81.565 37.703 81.617 C 37.769 81.669 37.81 81.798 37.824 82.005 C 37.824 82.138 37.792 82.252 37.725 82.348 C 37.658 82.444 37.558 82.493 37.425 82.493 C 36.478 82.448 35.554 82.426 34.651 82.426 C 33.852 82.426 32.972 82.448 32.011 82.493 C 31.892 82.493 31.796 82.444 31.722 82.348 C 31.648 82.252 31.611 82.138 31.611 82.005 C 31.626 81.783 31.674 81.65 31.754 81.605 C 31.836 81.561 31.981 81.539 32.188 81.539 C 32.617 81.539 32.935 81.461 33.142 81.307 C 33.349 81.151 33.479 80.958 33.53 80.73 C 33.582 80.5 33.616 80.2 33.63 79.83 L 33.63 71.021 C 33.616 70.651 33.582 70.351 33.53 70.123 C 33.479 69.893 33.349 69.7 33.142 69.544 C 32.935 69.389 32.617 69.312 32.188 69.312 L 32.055 69.312 C 31.907 69.312 31.8 69.286 31.734 69.235 C 31.667 69.183 31.626 69.053 31.611 68.846 C 31.611 68.713 31.648 68.598 31.722 68.501 C 31.796 68.405 31.892 68.358 32.011 68.358 C 32.972 68.402 33.86 68.424 34.673 68.424 L 38.002 68.424 C 39.289 68.424 40.535 68.691 41.74 69.223 C 42.946 69.756 43.549 70.821 43.549 72.419 C 43.549 73.306 43.283 74.098 42.751 74.793 C 42.218 75.488 41.527 76.028 40.677 76.413 C 40.005 76.716 39.313 76.9 38.601 76.964 C 39.044 78.648 39.894 80.201 41.095 81.17 C 42.52 82.319 44.099 82.297 45.237 81.111 C 45.331 81.013 45.42 80.91 45.505 80.801 C 45.625 80.627 45.739 80.451 45.846 80.274 L 45.848 80.274 C 49.178 74.727 46.019 67.245 39.338 66.047 C 35.991 65.447 32.579 66.678 30.386 69.277 C 25.66 74.875 28.768 83.49 35.979 84.782 C 37.21 85.003 38.449 84.976 39.633 84.725 C 39.748 84.689 39.872 84.669 40.001 84.669 C 40.637 84.669 41.152 85.142 41.152 85.724 C 41.152 86.267 40.704 86.715 40.128 86.773 C 38.706 87.079 37.184 87.121 35.611 86.839 C 31.529 86.107 28.148 83.254 26.741 79.353 C 23.71 70.949 30.912 62.414 39.707 63.991 C 43.788 64.722 47.169 67.576 48.576 71.476 Z M 37.381 75.991 C 37.913 75.991 38.464 75.884 39.034 75.67 C 39.603 75.455 40.088 75.085 40.487 74.561 C 40.887 74.035 41.087 73.343 41.087 72.485 C 41.087 71.183 40.672 70.318 39.844 69.889 C 39.015 69.46 38.135 69.245 37.203 69.245 C 36.818 69.245 36.53 69.286 36.338 69.368 C 36.145 69.449 36.009 69.608 35.928 69.845 C 35.846 70.081 35.805 70.451 35.805 70.954 L 35.805 75.747 C 36.16 75.91 36.685 75.991 37.381 75.991 Z" style="fill: rgb(255, 255, 255);"/>
  </g>
  <rect x="23.0293" y="90.1797" width="266.525" height="149.784" fill="#EEEEEE"/>
  <rect x="103.674" y="110.36" width="105.235" height="10.2065" fill="#F2BC40"/>
  <rect x="103.674" y="124.567" width="105.235" height="10.2065" fill="#F2BC40"/>
  <rect x="129.075" y="138.773" width="54.4326" height="10.2065" fill="white"/>
  <rect x="103.674" y="152.98" width="105.235" height="10.2065" fill="white"/>
  <rect x="129.075" y="167.187" width="54.4323" height="10.2065" fill="#F2BC40"/>
  <rect x="103.674" y="181.393" width="105.235" height="10.2065" fill="white"/>
  <rect x="103.674" y="195.6" width="105.235" height="10.2065" fill="white"/>
  <rect x="129.075" y="209.806" width="54.4323" height="10.2065" fill="#F2BC40"/>
  <rect x="266.523" y="66.1436" width="18.5696" height="18.5696" rx="0.687763" fill="black"/>
  <circle cx="275.808" cy="75.4286" r="4.51344" stroke="white" stroke-width="0.601793"/>
  <path d="M275.808 75.4286C275.808 78.0875 275.808 80.2429 275.808 80.2429C273.15 80.2429 270.994 78.0875 270.994 75.4286C270.994 72.7697 273.15 70.6143 275.808 70.6143C275.808 70.6143 275.808 72.7697 275.808 75.4286Z" fill="white"/>
  <mask id="path-18-inside-1_75:3600" fill="white">
    <path fill-rule="evenodd" clip-rule="evenodd" d="M286.216 83.6415L276.291 76.4524L277.555 88.642L280.694 86.8295L282.753 90.3955C283.133 91.0534 283.974 91.2788 284.632 90.8989C285.29 90.5191 285.516 89.6778 285.136 89.0199L283.077 85.454L286.216 83.6415Z"/>
  </mask>
  <path fill-rule="evenodd" clip-rule="evenodd" d="M286.216 83.6415L276.291 76.4524L277.555 88.642L280.694 86.8295L282.753 90.3955C283.133 91.0534 283.974 91.2788 284.632 90.8989C285.29 90.5191 285.516 89.6778 285.136 89.0199L283.077 85.454L286.216 83.6415Z" fill="white"/>
  <path d="M276.291 76.4524L276.585 76.0474L275.679 75.3911L275.794 76.504L276.291 76.4524ZM286.216 83.6415L286.466 84.0746L287.134 83.689L286.51 83.2366L286.216 83.6415ZM277.555 88.642L277.058 88.6936L277.137 89.4607L277.805 89.0751L277.555 88.642ZM280.694 86.8295L281.127 86.5795L280.877 86.1464L280.444 86.3965L280.694 86.8295ZM282.753 90.3955L282.32 90.6455L282.753 90.3955ZM285.136 89.0199L284.703 89.2699L285.136 89.0199ZM283.077 85.454L282.827 85.0209L282.394 85.2709L282.644 85.704L283.077 85.454ZM275.998 76.8574L285.923 84.0465L286.51 83.2366L276.585 76.0474L275.998 76.8574ZM278.052 88.5905L276.789 76.4008L275.794 76.504L277.058 88.6936L278.052 88.5905ZM280.444 86.3965L277.305 88.209L277.805 89.0751L280.944 87.2626L280.444 86.3965ZM283.186 90.1454L281.127 86.5795L280.261 87.0795L282.32 90.6455L283.186 90.1454ZM284.382 90.4659C283.963 90.7076 283.428 90.5642 283.186 90.1454L282.32 90.6455C282.838 91.5426 283.985 91.8499 284.882 91.332L284.382 90.4659ZM284.703 89.2699C284.944 89.6887 284.801 90.2241 284.382 90.4659L284.882 91.332C285.779 90.8141 286.087 89.667 285.569 88.7699L284.703 89.2699ZM282.644 85.704L284.703 89.2699L285.569 88.7699L283.51 85.204L282.644 85.704ZM285.966 83.2085L282.827 85.0209L283.327 85.887L286.466 84.0746L285.966 83.2085Z" fill="black" mask="url(#path-18-inside-1_75:3600)"/>
  <defs>
    <clipPath id="clip0_75:3600">
      <path d="M22.8066 62.6769C22.8066 61.5723 23.7022 60.6768 24.8068 60.6768H52.8095V90.1795H22.8066V62.6769Z" fill="white"/>
    </clipPath>
  </defs>
</svg>