<?xml version="1.0" encoding="utf-8"?>
<svg fill="none" height="240" viewBox="0 0 312 240" width="312" xmlns="http://www.w3.org/2000/svg">
  <path d="m0 0h312v240h-312z" fill="#00a0d2"/>
  <path d="m51 32c0-1.1046.8954-2 2-2h206c1.105 0 2 .8954 2 2v208h-210z" fill="#fff"/>
  <path d="m51 32c0-1.1046.8954-2 2-2h206c1.105 0 2 .8954 2 2v40h-210z" fill="#1e1e1e"/>
  <g fill="#ddd">
    <path d="m90 98h104v16h-104z"/>
    <path d="m90 130h126v8h-126z"/>
    <path d="m90 143h126v8h-126z"/>
    <path d="m90 156h126v8h-126z"/>
    <path d="m90 206h126v8h-126z"/>
    <path d="m90 169h126v8h-126z"/>
    <path d="m90 219h126v8h-126z"/>
    <path d="m90 182h63v8h-63z"/>
    <path d="m90 232h63v8h-63z"/>
  </g>
  <path d="M 81.715 46.831 C 82.875 50.046 82.537 53.279 81.186 55.958 C 80.569 57.214 79.788 58.403 78.692 59.277 L 78.475 59.403 C 77.465 59.847 75.349 59.813 73.751 58.524 C 72.11 57.2 70.832 54.898 70.249 52.294 C 69.774 52.238 69.339 52.137 68.944 51.99 L 68.944 55.185 C 68.959 55.555 68.992 55.855 69.043 56.085 C 69.095 56.313 69.225 56.506 69.432 56.662 C 69.639 56.816 69.957 56.894 70.386 56.894 L 70.52 56.894 C 70.667 56.894 70.775 56.92 70.842 56.972 C 70.908 57.024 70.949 57.153 70.963 57.36 C 70.963 57.493 70.931 57.607 70.864 57.703 C 70.797 57.799 70.697 57.848 70.564 57.848 C 69.617 57.803 68.693 57.781 67.79 57.781 C 66.991 57.781 66.111 57.803 65.15 57.848 C 65.031 57.848 64.935 57.799 64.861 57.703 C 64.787 57.607 64.75 57.493 64.75 57.36 C 64.765 57.138 64.813 57.005 64.893 56.96 C 64.975 56.916 65.12 56.894 65.327 56.894 C 65.756 56.894 66.074 56.816 66.281 56.662 C 66.488 56.506 66.618 56.313 66.669 56.085 C 66.721 55.855 66.755 55.555 66.769 55.185 L 66.769 46.376 C 66.755 46.006 66.721 45.706 66.669 45.478 C 66.618 45.248 66.488 45.055 66.281 44.899 C 66.074 44.744 65.756 44.667 65.327 44.667 L 65.194 44.667 C 65.046 44.667 64.939 44.641 64.873 44.59 C 64.806 44.538 64.765 44.408 64.75 44.201 C 64.75 44.068 64.787 43.953 64.861 43.856 C 64.935 43.76 65.031 43.713 65.15 43.713 C 66.111 43.757 66.999 43.779 67.812 43.779 L 71.141 43.779 C 72.428 43.779 73.674 44.046 74.879 44.578 C 76.085 45.111 76.688 46.176 76.688 47.774 C 76.688 48.661 76.422 49.453 75.89 50.148 C 75.357 50.843 74.666 51.383 73.816 51.768 C 73.144 52.071 72.452 52.255 71.74 52.319 C 72.183 54.003 73.033 55.556 74.234 56.525 C 75.659 57.674 77.238 57.652 78.376 56.466 C 78.47 56.368 78.559 56.265 78.644 56.156 C 78.764 55.982 78.878 55.806 78.985 55.629 L 78.987 55.629 C 82.317 50.082 79.158 42.6 72.477 41.402 C 69.13 40.802 65.718 42.033 63.525 44.632 C 58.799 50.23 61.907 58.845 69.118 60.137 C 70.349 60.358 71.588 60.331 72.772 60.08 C 72.887 60.044 73.011 60.024 73.14 60.024 C 73.776 60.024 74.291 60.497 74.291 61.079 C 74.291 61.622 73.843 62.07 73.267 62.128 C 71.845 62.434 70.323 62.476 68.75 62.194 C 64.668 61.462 61.287 58.609 59.88 54.708 C 56.849 46.304 64.051 37.769 72.846 39.346 C 76.927 40.077 80.308 42.931 81.715 46.831 Z M 70.52 51.346 C 71.052 51.346 71.603 51.239 72.173 51.025 C 72.742 50.81 73.227 50.44 73.626 49.916 C 74.026 49.39 74.226 48.698 74.226 47.84 C 74.226 46.538 73.811 45.673 72.983 45.244 C 72.154 44.815 71.274 44.6 70.342 44.6 C 69.957 44.6 69.669 44.641 69.477 44.723 C 69.284 44.804 69.148 44.963 69.067 45.2 C 68.985 45.436 68.944 45.806 68.944 46.309 L 68.944 51.102 C 69.299 51.265 69.824 51.346 70.52 51.346 Z" style="fill: rgb(255, 255, 255);"/>
</svg>