<?xml version="1.0" encoding="utf-8"?>
<svg viewBox="0 0 650 250" width="650px" height="250px" xmlns="http://www.w3.org/2000/svg">
  <g transform="matrix(1, 0, 0, 1, 2.984543, 19.938438)">
    <path d="M 207.031 70.59 C 217.18 98.723 214.226 127.024 202.401 150.476 C 197 161.471 190.16 171.871 180.568 179.524 L 178.669 180.627 C 169.828 184.515 151.313 184.217 137.322 172.934 C 122.957 161.348 111.773 141.199 106.676 118.402 C 102.517 117.915 98.709 117.028 95.25 115.741 L 95.25 143.71 C 95.381 146.946 95.669 149.57 96.118 151.581 C 96.574 153.585 97.711 155.268 99.523 156.632 C 101.337 157.987 104.12 158.665 107.875 158.665 L 109.04 158.665 C 110.334 158.665 111.276 158.893 111.864 159.351 C 112.442 159.8 112.795 160.931 112.925 162.744 C 112.925 163.908 112.636 164.91 112.057 165.748 C 111.471 166.592 110.594 167.016 109.429 167.016 C 101.142 166.628 93.049 166.434 85.151 166.434 C 78.158 166.434 70.454 166.628 62.037 167.016 C 61.002 167.016 60.16 166.592 59.513 165.748 C 58.866 164.91 58.542 163.908 58.542 162.744 C 58.671 160.802 59.089 159.636 59.798 159.247 C 60.514 158.858 61.779 158.665 63.592 158.665 C 67.347 158.665 70.131 157.987 71.943 156.632 C 73.756 155.268 74.886 153.585 75.336 151.581 C 75.794 149.57 76.087 146.946 76.216 143.71 L 76.216 66.603 C 76.087 63.365 75.794 60.745 75.336 58.742 C 74.886 56.731 73.756 55.043 71.943 53.679 C 70.131 52.324 67.347 51.647 63.592 51.647 L 62.427 51.647 C 61.132 51.647 60.195 51.422 59.616 50.973 C 59.03 50.516 58.671 49.38 58.542 47.567 C 58.542 46.402 58.866 45.396 59.513 44.551 C 60.16 43.713 61.002 43.295 62.037 43.295 C 70.454 43.683 78.223 43.877 85.345 43.877 L 114.478 43.877 C 125.744 43.877 136.65 46.208 147.199 50.87 C 157.756 55.531 163.035 64.853 163.035 78.838 C 163.035 86.607 160.704 93.535 156.042 99.62 C 151.381 105.706 145.33 110.432 137.89 113.799 C 132.013 116.455 125.958 118.062 119.722 118.623 C 123.596 133.365 131.034 146.953 141.55 155.434 C 154.025 165.495 167.845 165.299 177.806 154.921 C 178.628 154.064 179.409 153.159 180.149 152.21 C 181.203 150.689 182.198 149.147 183.134 147.589 L 183.155 147.589 C 212.298 99.044 184.651 33.553 126.174 23.07 C 96.88 17.818 67.011 28.593 47.817 51.336 C 6.459 100.34 33.659 175.739 96.776 187.054 C 107.544 188.984 118.39 188.749 128.755 186.55 C 129.766 186.237 130.85 186.067 131.977 186.067 C 137.541 186.067 142.051 190.2 142.051 195.298 C 142.051 200.053 138.129 203.969 133.087 204.475 C 120.642 207.157 107.319 207.52 93.55 205.052 C 57.827 198.648 28.234 173.672 15.919 139.533 C -10.618 65.974 52.427 -8.727 129.4 5.071 C 165.123 11.475 194.716 36.451 207.031 70.59 Z M 109.04 110.108 C 113.701 110.108 118.527 109.172 123.516 107.299 C 128.497 105.417 132.736 102.18 136.232 97.588 C 139.728 92.987 141.476 86.931 141.476 79.421 C 141.476 68.026 137.85 60.451 130.599 56.697 C 123.349 52.941 115.644 51.064 107.487 51.064 C 104.12 51.064 101.595 51.422 99.912 52.139 C 98.228 52.846 97.034 54.236 96.325 56.307 C 95.609 58.38 95.25 61.617 95.25 66.02 L 95.25 107.971 C 98.359 109.396 102.954 110.108 109.04 110.108 Z" style="fill: rgb(25, 25, 112);"/>
    <text style="fill: rgb(24, 25, 112); font-family: &quot;Mona Sans&quot;; font-size: 99px; font-weight: 900; white-space: pre;" x="210.164" y="165.989">etraceur</text>
  </g>
</svg>